<?xml version="1.0" standalone="no"?>
<!DOCTYPE svg PUBLIC "-//W3C//DTD SVG 1.1//EN" "http://www.w3.org/Graphics/SVG/1.1/DTD/svg11.dtd" >
<svg xmlns="http://www.w3.org/2000/svg">
<metadata>Generated by IcoMoon</metadata>
<defs>
<font id="icomoon" horiz-adv-x="1024">
<font-face units-per-em="1024" ascent="960" descent="-64" />
<missing-glyph horiz-adv-x="1024" />
<glyph unicode="&#x20;" horiz-adv-x="512" d="" />
<glyph unicode="&#xe900;" glyph-name="arroba" d="M669.926 369.698l96.376 332.732h-55.296l-19.2-68.88c-7.97 22.358-20.326 41.404-36.95 56.798-25.924 23.962-61.406 36.096-105.506 36.096-42.462 0-81.716-11.98-116.6-35.602-34.134-23.006-63.624-52.94-87.604-88.884-23.74-35.652-42.274-75.452-55.022-118.272-12.732-42.82-19.2-84.924-19.2-125.132 0-22.46 3.090-44.766 9.148-66.168 6.196-22.016 16.162-41.762 29.696-58.658 13.568-16.948 30.908-30.874 51.542-41.404 20.804-10.684 45.892-16.094 74.598-16.094 23.79 0 46.25 4.114 66.782 12.236 20.104 7.97 38.348 17.902 54.29 29.628 15.992 11.776 30.072 25.412 41.882 40.5 2.236 2.85 4.404 5.718 6.52 8.568 3.038-25.412 13.004-45.414 29.832-59.852 24.132-20.6 55.092-31.078 92.074-31.078 43.912 0 83.576 9.268 117.88 27.528 34.168 18.192 63.112 43.468 86.084 75.196 22.716 31.488 40.278 69.24 52.19 112.248 11.878 42.77 17.902 89.242 17.902 138.222 0 61.116-11.862 118.766-35.226 171.4-23.33 52.48-56.49 98.612-98.628 137.062-42.036 38.298-92.45 68.574-149.862 89.992-57.43 21.3-121.002 32.12-188.928 32.12-71.014 0-137.916-13.38-198.894-39.748-60.98-26.368-114.962-62.958-160.426-108.834-45.5-45.926-81.716-100.522-107.64-162.236-25.942-61.816-39.082-129.092-39.082-199.834s12.424-137.916 36.916-199.68c24.558-61.816 59.614-116.6 104.124-162.936 44.612-46.472 99.038-83.626 161.706-110.336 62.768-26.81 133.186-40.396 209.252-40.396 82.62 0 159.54 17.494 228.66 52.036 68.898 34.492 128.666 81.356 177.562 139.366l8.174 9.676-39.424 34.134-8.38-9.932c-42.24-50.040-95.932-91.836-159.54-124.33-63.3-32.29-132.95-48.622-207.052-48.622-67.38 0-129.86 12.236-185.77 36.3-55.996 24.116-104.67 57.498-144.622 99.208-40.056 41.762-71.492 91.084-93.44 146.688-21.982 55.654-33.144 115.798-33.144 178.824 0 59.46 11.35 117.556 33.758 172.698s53.896 104.568 93.542 146.842c39.662 42.206 87.484 76.254 142.132 101.222 54.648 24.918 115.474 37.546 180.872 37.546 59.478 0 115.456-9.626 166.366-28.57 50.808-18.944 95.42-45.722 132.676-79.514 37.206-33.844 66.696-74.24 87.706-119.962 20.924-45.772 31.54-96.308 31.54-150.204 0-38.81-4.37-76.852-12.988-113.152-8.516-35.788-21.88-68.13-39.732-96.204-17.494-27.528-40.328-49.938-67.874-66.628-27.238-16.486-60.484-24.866-98.816-24.866-20.224 0-37.478 5.018-51.218 14.882-12.578 9.13-18.706 25.362-18.706 49.732 0 9.932 1.28 22.204 3.84 36.454 2.578 14.458 5.65 27.94 9.148 40.074zM643.712 462.558c-9.506-36.694-23.74-72.994-42.292-107.98-18.398-34.594-41.54-64.87-68.762-89.992-26.3-24.218-55.74-35.994-90.094-35.994-40.652 0-69.41 11.674-87.91 35.686-19.064 24.746-28.724 55.978-28.724 92.928 0 33.382 5.24 69.324 15.564 106.734 10.274 37.29 25.292 72.090 44.596 103.476 19.046 30.874 42.838 56.85 70.708 77.108 26.966 19.61 58.094 29.576 92.552 29.576 19.252 0 35.822-3.208 49.238-9.42 13.432-6.366 24.166-14.796 32.768-25.72 8.756-11.178 15.412-24.32 19.832-39.1 4.54-15.24 6.81-31.334 6.81-47.718-0.002-22.82-4.814-52.942-14.286-89.584z" />
<glyph unicode="&#xe901;" glyph-name="cancel" d="M463.056 451.424l-453.248-453.248c-12.592-12.592-12.592-32.992 0-45.584 6.288-6.304 14.544-9.44 22.784-9.44 8.256 0 16.496 3.136 22.784 9.44l456.656 456.656 456.656-456.656c6.304-6.304 14.544-9.44 22.784-9.44s16.496 3.136 22.784 9.44c12.592 12.592 12.592 32.992 0 45.584l-453.232 453.248 453.536 453.568c12.592 12.592 12.592 32.992 0 45.584-12.592 12.576-32.992 12.576-45.568 0l-456.944-456.976-456.992 456.96c-12.592 12.576-32.976 12.576-45.568 0-12.592-12.592-12.592-32.992 0-45.584l453.568-453.552z" />
<glyph unicode="&#xe902;" glyph-name="download" d="M350.364 468.601c-6.786 6.786-17.755 6.786-24.541 0s-6.786-17.755 0-24.541l173.195-173.195c3.228-3.28 7.637-5.103 12.253-5.103 0.121 0 0.243 0.069 0.364 0.069s0.226-0.069 0.364-0.069c5.78 0 10.639 3.003 13.798 7.342l171.668 171.668c6.786 6.786 6.786 17.755 0 24.541s-17.755 6.786-24.541 0l-143.568-143.568v616.899c0 9.598-7.758 17.356-17.356 17.356s-17.356-7.758-17.356-17.356v-618.357l-144.28 144.315zM633.492 682.305c-9.598 0-17.356-7.758-17.356-17.356s7.758-17.356 17.356-17.356h225.627v-676.881h-694.237v676.881h225.627c9.598 0 17.356 7.758 17.356 17.356s-7.758 17.356-17.356 17.356h-260.339v-746.305h763.661v746.305h-260.339z" />
<glyph unicode="&#xe903;" glyph-name="facebook" d="M896 960h-768c-70.592 0-128-57.408-128-128v-768c0-70.592 57.408-128 128-128h384v352h-128v160h128v128c0 106.048 85.952 192 192 192h128v-160h-64c-35.328 0-64 3.328-64-32v-128h160l-64-160h-96v-352h192c70.592 0 128 57.408 128 128v768c0 70.592-57.408 128-128 128z" />
<glyph unicode="&#xe904;" glyph-name="facebook-border" d="M423.887 115.464h137.799v332.72h92.472c0 0 8.665 53.687 12.886 112.397h-104.822v76.566c0 11.435 15.010 26.806 29.882 26.806h75.088v116.584h-102.117c-144.58 0-141.19-112.074-141.19-128.811v-91.539h-67.079v-111.962h67.079v-332.76zM0 960v-1024h1024v1024h-1024zM960.66-0.66h-897.32v897.32h897.32v-897.32z" />
<glyph unicode="&#xe905;" glyph-name="facebook-solid" d="M592.618-64h-220.355v459.122h-121.39v210.854h121.386v118.402c0 108.699 68.006 235.623 259.75 235.623 67.595 0 117.218-6.335 119.291-6.608l20.345-2.645-4.899-197.323-22.418 0.206c-0.046 0-50.42 0.479-105.37 0.479-40.895 0-46.318-10.092-46.318-50.236v-97.944h180.484l-10-210.854h-170.463v-459.076h-0.043zM417.802-18.433h129.224v459.097h172.558l5.697 119.745h-178.255v143.511c0 47.389 10.911 95.802 91.882 95.802 32.536 0 63.451-0.16 83.338-0.319l2.758 110.929c-20.118 1.801-53.586 4.102-93.045 4.102-157.907 0-214.183-98.171-214.183-190.056v-163.968h-121.383v-119.745h121.386v-459.097h0.021z" />
<glyph unicode="&#xe906;" glyph-name="facebook-bold" d="M269.883 414.618h112.247v-462.101c0-9.124 7.393-16.516 16.516-16.516h190.319c9.124 0 16.516 7.393 16.516 16.516v459.925h129.037c8.39 0 15.449 6.296 16.407 14.63l19.598 170.123c0.538 4.681-0.945 9.368-4.076 12.879-3.135 3.515-7.621 5.526-12.328 5.526h-148.632v106.641c0 32.147 17.309 48.448 51.451 48.448 4.866 0 97.181 0 97.181 0 9.124 0 16.516 7.396 16.516 16.516v156.157c0 9.124-7.393 16.516-16.516 16.516h-133.929c-0.945 0.046-3.042 0.122-6.134 0.122-23.238 0-104.012-4.562-167.817-63.26-70.696-65.047-60.869-142.931-58.52-156.434v-124.703h-117.836c-9.124 0-16.516-7.393-16.516-16.516v-167.949c0-9.124 7.393-16.519 16.516-16.519z" />
<glyph unicode="&#xe907;" glyph-name="google-plus-border" d="M374.776 115.464c149.445 0 227.664 82.433 227.664 163.905 0.025 60.23-35.289 89.981-72.782 121.577l-31.63 24.582c-9.788 8.114-21.962 18.177-21.962 36.86 0 18.348 12.176 30.454 22.908 41.152l1.142 1.142c34.138 26.898 72.877 57.414 72.877 123.389 0 66.334-41.452 100.618-61.415 117.086h52.657c0.636 0 1.279 0.198 1.812 0.532l45.341 28.505c1.279 0.807 1.915 2.388 1.476 3.864-0.429 1.463-1.778 2.477-3.279 2.477h-158.642c-70.671 0-119.601-15.497-163.639-51.884-34.609-29.888-55.302-73.289-55.302-116.149 0-66.034 50.339-136.232 143.643-136.232 8.99 0 18.924 0.935 27.673 1.744l-1.271-3.116c-3.76-8.99-7.316-17.471-7.316-30.686 0-25.758 12.406-41.659 24.454-57.019l1.512-1.94-2.688-0.207c-38.534-2.618-110.244-7.546-162.626-39.744-61.879-36.79-66.678-90.281-66.678-105.778 0-61.752 57.515-124.060 186.072-124.060zM416.365 500.585c-76.475 0-108.2 100.515-108.2 154.347 0 27.363 6.207 48.364 19.017 64.223 13.884 17.378 37.7 28.609 60.633 28.609 70.198 0 109.006-94.377 109.006-159.577 0-10.295 0-41.583-21.603-63.321-14.549-14.52-38.194-24.28-58.854-24.28zM339.256 346.983c39.478 13.274 90.452 13.952 90.959 13.952 8.621 0 12.983 0 19.851-0.876 63.758-45.377 94.419-69.193 94.419-114.57 0-57.783-48.768-93.672-127.286-93.672-91.087 0-152.297 42.527-152.297 105.882 0 41.348 25.019 71.399 74.355 89.284zM622.324 426.599h83.147v-83.816c0-1.881 1.537-3.418 3.416-3.418h35.95c1.915 0 3.46 1.537 3.46 3.418v83.816h83.575c1.881 0 3.427 1.546 3.427 3.452v36.421c0 1.915-1.512 3.427-3.427 3.427h-83.575v83.309c0 1.881-1.546 3.418-3.46 3.418h-35.95c-1.881 0-3.416-1.537-3.416-3.418v-83.309h-83.147c-1.915 0-3.452-1.546-3.452-3.427v-36.421c0-1.907 1.537-3.452 3.452-3.452zM0 960v-1024h1024v1024h-1024zM960.66-0.66h-897.32v897.32h897.32v-897.32z" />
<glyph unicode="&#xe908;" glyph-name="google-plus" d="M785.86 491.662h-366.733v-122.245h223.744c-33.377-106.277-132.646-183.368-249.943-183.368-144.676 0-261.951 117.284-261.951 261.953 0 144.676 117.28 261.951 261.951 261.951 72.854 0 138.748-29.748 186.23-77.751l88.735 96.45c-70.868 69.442-167.905 112.275-274.965 112.275-217.007 0.002-392.928-175.919-392.928-392.926s175.921-392.932 392.93-392.932c190.092 0 356.522 134.999 392.932 314.344v122.245l-0.002 0.002zM1024 491.87h-75.013v75.013h-64.302v-75.013h-75.013v-64.295h75.013v-75.015h64.302v75.015h75.013z" />
<glyph unicode="&#xe909;" glyph-name="instagram" d="M0 960v-1024h1024v1024h-1024zM960.66-0.66h-897.32v897.32h897.32v-897.32zM676.748 780.438h-329.493c-92.5 0-167.749-75.248-167.749-167.749v-329.49c0-92.511 75.248-167.749 167.749-167.749h329.493c92.508 0 167.746 75.238 167.746 167.749v329.49c0 92.5-75.238 167.749-167.746 167.749zM772.133 283.197c0-52.596-42.792-95.388-95.385-95.388h-329.493c-52.586 0-95.377 42.792-95.377 95.388v329.493c0 52.586 42.792 95.377 95.377 95.377h329.493c52.593 0 95.385-42.789 95.385-95.377v-329.493zM688.777 583.793c-22.356 0-40.535 18.179-40.535 40.522 0 22.346 18.179 40.525 40.535 40.525 22.343 0 40.522-18.179 40.522-40.525 0-22.343-18.179-40.522-40.522-40.522v0zM511.995 619.211c-94.427 0-171.261-76.834-171.261-171.261 0-94.438 76.834-171.272 171.261-171.272 94.438 0 171.272 76.834 171.272 171.272 0 94.424-76.834 171.261-171.272 171.261zM511.995 349.034c-54.512 0-98.903 44.38-98.903 98.914 0 54.512 44.391 98.882 98.903 98.882 54.533 0 98.893-44.37 98.893-98.882 0-54.531-44.359-98.914-98.893-98.914z" />
<glyph unicode="&#xe90a;" glyph-name="instagram-symbol" d="M985.343 921.327c-25.779 25.786-56.671 38.673-92.661 38.673h-761.34c-36.002 0-66.885-12.892-92.671-38.673-25.781-25.774-38.668-56.662-38.668-92.657v-761.333c0-35.99 12.885-66.885 38.668-92.661 25.786-25.779 56.676-38.675 92.671-38.675h761.331c35.983 0 66.885 12.896 92.664 38.675 25.786 25.777 38.661 56.671 38.661 92.661v761.333c-0.002 36.002-12.875 66.873-38.654 92.657zM367.68 591.005c40.219 38.883 88.554 58.334 144.999 58.334 56.882 0 105.434-19.451 145.662-58.334 40.228-38.89 60.33-85.895 60.33-141.004 0-55.102-20.102-102.109-60.33-140.988-40.228-38.899-88.764-58.348-145.662-58.348-56.443 0-104.773 19.465-144.999 58.348-40.228 38.883-60.34 85.885-60.34 140.988 0 55.109 20.112 102.111 60.34 141.004zM908.016 94.659c0-11.547-4.012-21.209-12.004-28.992-8.016-7.776-17.557-11.666-28.679-11.666h-712.655c-11.554 0-21.228 3.89-28.999 11.666-7.783 7.766-11.671 17.445-11.671 28.992v432.015h93.997c-8.885-28.004-13.328-57.12-13.328-87.335 0-85.353 31.107-158.117 93.329-218.352 62.229-60.211 137.116-90.331 224.671-90.331 57.778 0 111.108 13.784 160.013 41.337 48.889 27.57 87.531 65.005 115.996 112.344 28.448 47.336 42.671 99.006 42.671 155 0 30.215-4.46 59.324-13.345 87.335h90.009v-432.015h-0.005zM908.016 690.008c0-12.889-4.444-23.78-13.347-32.667-8.885-8.894-19.768-13.335-32.665-13.335h-115.996c-12.882 0-23.782 4.444-32.667 13.335-8.887 8.887-13.328 19.778-13.328 32.667v109.99c0 12.446 4.441 23.222 13.328 32.336 8.887 9.109 19.787 13.669 32.667 13.669h115.996c12.896 0 23.782-4.558 32.665-13.669 8.901-9.114 13.347-19.89 13.347-32.336v-109.99z" />
<glyph unicode="&#xe90b;" glyph-name="mouse" d="M512 960c-188.216 0-341.333-153.054-341.333-341.168v-341.684c0-188.109 153.118-341.148 341.333-341.148s341.333 153.035 341.333 341.148v341.684c0 188.113-153.123 341.168-341.333 341.168zM815.408 277.148c0-167.202-136.109-303.223-303.408-303.223s-303.408 136.021-303.408 303.223v341.684c0 167.202 136.109 303.242 303.408 303.242s303.408-136.036 303.408-303.242v-341.684zM512 846.224c-10.473 0-18.965-8.482-18.965-18.965v-171.723c0-10.483 8.492-18.965 18.965-18.965s18.965 8.482 18.965 18.965v171.723c-0.005 10.483-8.492 18.965-18.965 18.965z" />
<glyph unicode="&#xe90c;" glyph-name="next" d="M774.115 468.413l-483.056 483.056c-11.374 11.374-29.614 11.374-40.988 0s-11.374-29.614 0-40.988l462.455-462.455-462.455-462.455c-11.374-11.374-11.374-29.614 0-40.988 5.58-5.58 13.090-8.584 20.387-8.584s14.807 2.79 20.387 8.584l483.056 483.056c11.374 11.159 11.374 29.614 0.215 40.773z" />
<glyph unicode="&#xe90d;" glyph-name="next-arrow" d="M1008.311 432.327h-992.623c-8.66 0-15.689 7.029-15.689 15.689s7.029 15.689 15.689 15.689h992.623c8.66 0 15.689-7.029 15.689-15.689s-7.029-15.689-15.689-15.689zM614.933 38.98c-4.016 0-8.033 1.537-11.108 4.581-6.119 6.119-6.119 16.065 0 22.184l382.302 382.302-382.302 382.176c-6.119 6.119-6.119 16.065 0 22.184s16.065 6.119 22.184 0l393.378-393.252c2.949-2.949 4.581-6.934 4.581-11.108s-1.663-8.158-4.581-11.108l-393.378-393.347c-3.044-3.075-7.060-4.612-11.076-4.612z" />
<glyph unicode="&#xe90e;" glyph-name="phone-call" d="M822.996-64c-42.605 0-94.062 10.677-150.65 32.031-124.061 46.772-259.040 139.215-380.069 260.245-121.064 121.064-213.507 256.077-260.314 380.138-42.536 112.798-42.639 205.379-0.241 247.742 6.096 6.096 12.296 12.64 18.702 19.391 38.679 40.676 82.386 86.45 140.317 84.383 39.918-1.653 78.597-26.452 118.206-75.738 117.034-145.553 64.269-197.422 3.203-257.559l-10.78-10.677c-9.988-9.988-28.863-56.244 146.724-231.83 57.312-57.312 106.185-99.262 145.243-124.646 24.592-15.981 68.574-40.16 86.622-22.112l10.849 10.953c60.067 60.928 111.937 113.521 257.386-3.41 49.287-39.608 74.051-78.253 75.704-118.24 2.377-57.897-43.742-101.708-84.452-140.352-6.716-6.406-13.26-12.606-19.356-18.668-21.044-21.079-54.694-31.652-97.092-31.652zM186.608 925.558c-41.158 0-78.321-39.126-111.214-73.741-6.613-6.957-13.019-13.708-19.322-20.011-31.583-31.549-28.38-114.451 8.128-211.268 45.119-119.583 134.772-250.257 252.461-367.946 117.654-117.62 248.259-207.273 367.877-252.358 96.817-36.578 179.719-39.677 211.234-8.163 6.303 6.303 13.054 12.709 20.011 19.288 35.372 33.616 75.497 71.709 73.741 113.969-1.205 29.035-22.353 60.274-62.857 92.822-121.202 97.471-155.093 63.064-211.303 6.062l-11.021-11.125c-26.865-26.899-70.503-20.941-129.744 17.566-41.090 26.727-91.857 70.193-150.822 129.193-145.725 145.69-192.325 234.861-146.724 280.566l10.987 10.849c57.14 56.21 91.616 90.135-5.89 211.406-32.617 40.47-63.821 61.617-92.856 62.857-0.895 0.034-1.791 0.034-2.686 0.034z" />
<glyph unicode="&#xe90f;" glyph-name="pinterest-border" d="M332.701 395.892c8.703-3.579 16.684-0.133 19.114 9.493 1.907 6.799 6.013 23.615 7.949 30.676 2.43 9.623 1.546 12.94-5.517 21.415-15.402 18.096-25.258 41.583-25.258 74.95 0 96.465 72.225 182.946 188.068 182.946 102.641 0 158.967-62.734 158.967-146.521 0-110.096-48.643-202.98-121.13-202.98-40.006 0-69.797 32.975-60.27 73.54 11.53 48.348 33.733 100.7 33.733 135.582 0 31.332-16.686 57.38-51.468 57.38-40.924 0-73.768-42.239-73.768-98.929 0-36.064 12.185-60.435 12.185-60.435s-41.811-177.196-49.135-208.235c-14.617-61.714-2.168-137.389-1.151-145.108 0.657-4.499 6.535-5.65 9.129-2.166 3.712 4.86 52.454 64.9 69.007 124.941 4.632 17.079 26.835 105.103 26.835 105.103 13.204-25.421 52.059-47.626 93.378-47.626 122.806 0 206.069 111.903 206.069 261.739 0 113.286-95.973 218.881-241.869 218.881-181.666 0-273.007-130.099-273.007-238.615 0-65.821 24.899-124.221 78.139-146.029zM0 960v-1024h1024v1024h-1024zM960.66-0.66h-897.32v897.32h897.32v-897.32z" />
<glyph unicode="&#xe910;" glyph-name="pinterest" d="M525.92 960c-280.653 0-429.907-179.848-429.907-375.953 0-90.948 50.818-204.361 132.166-240.331 12.353-5.568 19.073-3.2 21.825 8.256 2.432 8.704 13.121 50.626 18.305 70.403 1.6 6.336 0.768 11.841-4.352 17.793-27.009 31.233-48.45 88.132-48.45 141.51 0 136.774 108.741 269.58 293.773 269.58 160.007 0 271.948-103.941 271.948-252.619 0-168.008-88.9-284.237-204.425-284.237-63.939 0-111.557 50.178-96.452 112.261 18.241 73.923 54.018 153.415 54.018 206.729 0 47.81-27.009 87.364-82.18 87.364-65.091 0-117.893-64.451-117.893-150.983 0-54.978 19.457-92.1 19.457-92.1s-64.387-260.108-76.355-308.686c-20.225-82.244 2.752-215.434 4.736-226.89 1.216-6.336 8.32-8.32 12.289-3.136 6.336 8.32 84.164 119.365 105.989 199.625 7.936 29.249 40.514 147.847 40.514 147.847 21.441-38.722 83.332-71.171 149.255-71.171 196.105 0 337.807 172.36 337.807 386.257-0.704 205.065-176.2 358.48-402.066 358.48z" />
<glyph unicode="&#xe911;" glyph-name="placeholder" d="M515.338 735.59c-72.166 0-130.906-58.739-130.906-130.906s58.739-130.906 130.906-130.906 130.906 58.739 130.906 130.906-58.739 130.906-130.906 130.906zM515.338 511.181c-51.558 0-93.504 41.946-93.504 93.504s41.946 93.504 93.504 93.504 93.504-41.946 93.504-93.504-41.946-93.504-93.504-93.504zM765.611 854.958c-67.734 67.734-157.797 105.042-253.583 105.042-95.804 0-185.849-37.308-253.583-105.042-125.351-125.333-140.929-361.15-33.736-504.024l287.319-414.933 286.889 414.354c107.623 143.454 92.045 379.271-33.306 504.604zM768.584 372.215l-256.556-370.5-256.968 371.080c-97.225 129.634-83.293 342.599 29.846 455.72 60.665 60.665 141.322 94.084 227.121 94.084s166.456-33.418 227.14-94.084c113.14-113.121 127.072-326.086 29.416-456.3z" />
<glyph unicode="&#xe912;" glyph-name="search" d="M999.602-31.269l-287.271 298.755c73.273 73.485 118.667 174.791 118.667 286.517 0 223.878-182.118 405.996-405.996 405.996s-405.996-182.118-405.996-405.996 182.118-405.996 405.996-405.996c98.27 0 188.46 35.128 258.755 93.418l287.967-299.49c3.789-3.963 8.855-5.935 13.939-5.935 4.833 0 9.647 1.798 13.398 5.394 7.695 7.405 7.927 19.642 0.541 27.337zM425.001 186.674c-202.553 0-367.33 164.776-367.33 367.33s164.776 367.33 367.33 367.33 367.33-164.776 367.33-367.33-164.796-367.33-367.33-367.33z" />
<glyph unicode="&#xe913;" glyph-name="twitter" d="M179.464 239.066c60.382-38.722 132.102-61.307 209.16-61.307 250.977 0 388.218 207.91 388.218 388.225 0 5.91-0.133 11.796-0.393 17.651 26.664 19.236 49.796 43.268 68.089 70.631-24.47-10.852-50.767-18.191-78.369-21.489 28.174 16.891 49.809 43.625 59.994 75.489-26.366-15.632-55.568-26.993-86.645-33.108-24.888 26.518-60.351 43.084-99.598 43.084-75.35 0-136.447-61.092-136.447-136.441 0-10.694 1.212-21.107 3.541-31.098-113.4 5.696-213.942 60.013-281.237 142.57-11.747-20.157-18.476-43.593-18.476-68.602 0-47.334 24.082-89.101 60.697-113.569-22.37 0.709-43.409 6.851-61.801 17.068-0.013-0.572-0.013-1.142-0.013-1.719 0-66.108 47.036-121.252 109.454-133.791-11.45-3.112-23.506-4.789-35.95-4.789-8.792 0-17.34 0.857-25.676 2.455 17.366-54.211 67.759-93.661 127.468-94.757-46.701-36.602-105.533-58.417-169.46-58.417-11.021-0.002-21.88 0.644-32.555 1.913zM0 960v-1024h1024v1024h-1024zM960.66-0.66h-897.32v897.32h897.32v-897.32z" />
<glyph unicode="&#xe914;" glyph-name="twitter-solid" d="M1018.134 771.245c-5.213 5.213-13.904 6.952-20.858 5.213l-34.761-12.167c20.858 24.333 34.761 50.404 43.452 74.736 3.477 8.69 1.738 15.642-3.477 20.858-5.213 5.213-13.904 6.952-20.858 3.477-48.665-20.858-90.379-38.238-125.14-48.665 0-1.738-1.738 0-3.477 0-27.81 15.642-95.594 50.404-144.259 50.404-123.404-1.738-222.473-106.023-222.473-232.902v-6.952c-180.759 34.761-279.828 86.904-387.59 199.879l-17.377 17.381-10.429-20.858c-59.094-112.975-17.381-215.521 50.404-285.044-31.285 5.213-52.142 15.642-71.261 31.285-6.952 5.213-15.642 6.952-24.333 1.738-6.952-3.477-10.429-13.904-8.69-22.594 24.333-81.688 85.165-147.736 151.211-187.711-31.285 0-57.356 3.477-83.427 20.858-6.952 3.477-17.381 3.477-24.333-1.738s-10.429-13.904-6.952-22.594c31.285-88.642 92.117-135.569 189.45-147.736-50.404-29.548-116.45-53.881-218.996-55.619-10.429 0-19.119-6.952-22.594-15.642-3.477-10.429 0-19.119 6.952-26.071 62.571-50.404 201.615-79.952 373.684-79.952 305.9 0 556.182 272.877 556.182 608.324v5.213c38.238 19.119 69.523 55.619 85.165 106.023 1.736 6.954-0.002 15.644-5.215 20.858zM913.849 672.176l-10.429-3.477v-29.548c0-316.328-234.64-573.563-521.42-573.563-158.165 0-264.186 26.071-321.542 53.881 119.927 8.69 189.45 46.929 243.33 88.642l43.452 31.285h-52.142c-99.069 0-159.902 27.81-194.663 93.856 31.285-10.429 64.308-10.429 100.808-8.69 13.904 1.738 27.81 1.738 41.713 1.738l5.213 34.761c-66.046 19.119-144.259 78.213-182.498 158.163 34.761-15.642 72.998-19.119 107.759-19.119h53.881l-43.45 31.287c-36.5 26.071-144.259 118.188-92.117 250.282 111.236-109.498 217.259-159.902 408.446-194.663l20.858-3.477v48.665c0 107.759 83.427 196.402 187.711 198.14 39.975 1.738 106.023-34.761 125.14-45.19 10.429-5.213 20.858-6.952 31.285-3.477 26.071 8.69 57.356 20.858 92.117 34.761-15.642-26.071-36.5-50.404-64.308-73-6.952-5.213-8.69-15.642-5.213-24.333s13.904-12.167 22.594-8.69l67.785 22.594c-12.167-22.592-31.287-48.663-64.31-60.829z" />
<glyph unicode="&#xe915;" glyph-name="twitter-logo-silhouette" d="M1024 765.477c-37.689-16.7-78.129-28.026-120.618-33.083 43.384 25.98 76.594 67.187 92.334 116.139-40.696-24.059-85.616-41.529-133.48-50.999-38.328 40.888-92.846 66.356-153.316 66.356-116.010 0-210.072-94.062-210.072-210.009 0-16.444 1.856-32.505 5.44-47.864-174.559 8.768-329.345 92.399-432.941 219.481-18.109-30.971-28.411-67.059-28.411-105.581 0-72.883 37.113-137.191 93.423-174.815-34.426 1.151-66.804 10.621-95.15 26.363v-2.624c0-101.741 72.435-186.652 168.48-205.978-17.597-4.735-36.153-7.359-55.35-7.359-13.565 0-26.683 1.344-39.544 3.904 26.746-83.505 104.301-144.228 196.188-145.893-71.859-56.31-162.466-89.776-260.879-89.776-16.956 0-33.658 1.024-50.102 2.88 92.975-59.702 203.354-94.511 321.988-94.511 386.423 0 597.648 320.069 597.648 597.648l-0.704 27.195c41.271 29.437 76.976 66.421 105.067 108.526z" />
<glyph unicode="&#xe916;" glyph-name="more_fill" d="M396.643 448c0 63.739 51.618 115.357 115.357 115.357s115.357-51.618 115.357-115.357-51.618-115.357-115.357-115.357-115.357 51.618-115.357 115.357zM908.643 563.357c-63.739 0-115.357-51.618-115.357-115.357s51.618-115.357 115.357-115.357 115.357 51.618 115.357 115.357-51.618 115.357-115.357 115.357zM115.357 563.357c-63.739 0-115.357-51.618-115.357-115.357s51.618-115.357 115.357-115.357 115.357 51.618 115.357 115.357c0 63.739-51.618 115.357-115.357 115.357z" />
<glyph unicode="&#xe917;" glyph-name="more" d="M136.533 584.533c-75.281 0-136.533-61.252-136.533-136.533s61.252-136.533 136.533-136.533 136.533 61.252 136.533 136.533-61.252 136.533-136.533 136.533zM136.533 345.6c-56.474 0-102.4 45.926-102.4 102.4s45.926 102.4 102.4 102.4 102.4-45.926 102.4-102.4-45.926-102.4-102.4-102.4zM887.467 584.533c-75.281 0-136.533-61.252-136.533-136.533s61.252-136.533 136.533-136.533 136.533 61.252 136.533 136.533-61.252 136.533-136.533 136.533zM887.467 345.6c-56.474 0-102.4 45.926-102.4 102.4s45.926 102.4 102.4 102.4 102.4-45.926 102.4-102.4-45.926-102.4-102.4-102.4zM512 584.533c-75.281 0-136.533-61.252-136.533-136.533s61.252-136.533 136.533-136.533 136.533 61.252 136.533 136.533-61.252 136.533-136.533 136.533zM512 345.6c-56.474 0-102.4 45.926-102.4 102.4s45.926 102.4 102.4 102.4 102.4-45.926 102.4-102.4-45.926-102.4-102.4-102.4z" />
<glyph unicode="&#xe918;" glyph-name="arrow-down" d="M350.72 303.72c-6.786 6.786-17.755 6.786-24.541 0s-6.786-17.755 0-24.541l173.195-173.195c3.228-3.28 7.637-5.103 12.253-5.103 0.121 0 0.243 0.069 0.364 0.069s0.226-0.069 0.364-0.069c5.78 0 10.639 3.003 13.798 7.342l171.668 171.668c6.786 6.786 6.786 17.755 0 24.541s-17.755 6.786-24.541 0l-143.568-143.568v616.899c0 9.598-7.758 17.356-17.356 17.356s-17.356-7.758-17.356-17.356v-618.357z" />
<glyph unicode="&#xe919;" glyph-name="prev" d="M249.884 427.587l483.056-483.056c11.374-11.374 29.614-11.374 40.988 0s11.374 29.614 0 40.988l-462.455 462.455 462.455 462.455c11.374 11.374 11.374 29.614 0 40.988-5.58 5.58-13.090 8.584-20.387 8.584s-14.807-2.79-20.387-8.584l-483.056-483.056c-11.374-11.159-11.374-29.614-0.215-40.773z" />
<glyph unicode="&#xe91a;" glyph-name="home" d="M1013.11 543.872l-485.392 355.394c-9.36 6.852-22.076 6.852-31.432 0l-485.396-355.394c-11.856-8.682-14.432-25.33-5.75-37.186s25.332-14.428 37.186-5.75l469.674 343.888 469.674-343.886c4.736-3.47 10.24-5.14 15.696-5.14 8.192 0 16.276 3.77 21.488 10.89 8.684 11.854 6.108 28.502-5.748 37.184zM884.492 494.914c-14.692 0-26.606-11.912-26.606-26.606v-423.498h-212.844v231.172c0 73.36-59.684 133.040-133.040 133.040s-133.040-59.684-133.040-133.040v-231.174h-212.846v423.498c0 14.694-11.914 26.606-26.606 26.606s-26.606-11.912-26.606-26.606v-450.106c0-14.694 11.914-26.606 26.606-26.606h266.058c13.992 0 25.442 10.81 26.502 24.534 0.064 0.622 0.104 1.302 0.104 2.072v257.78c0 44.018 35.81 79.828 79.828 79.828s79.828-35.812 79.828-79.828v-257.78c0-0.766 0.040-1.434 0.104-2.048 1.048-13.734 12.502-24.558 26.502-24.558h266.058c14.694 0 26.606 11.912 26.606 26.606v450.106c-0.002 14.696-11.914 26.608-26.608 26.608z" />
<glyph unicode="&#xe91b;" glyph-name="external-link2" d="M877.018 426.503c-0.050-16.226 13.008-29.356 29.25-29.372 16.226-0.014 29.35 13.038 29.402 29.266l0.894 413.838c0.038 7.756-3.002 15.222-8.512 20.76-0.122 0.123-0.406 0.162-0.54 0.314-0.156 0.152-0.156 0.382-0.314 0.544-6.882 6.916-16.274 9.15-25.25 7.76l-410.17 0.846c-16.214 0.060-29.356-13.028-29.364-29.242-0.058-16.216 13.030-29.36 29.244-29.364l343.036-0.752-738.576-735.458c-11.474-11.42-11.529-29.956-0.096-41.454s29.984-11.518 41.456-0.092l740.316 737.188-0.744-344.782z" />
<glyph unicode="&#xe91c;" glyph-name="solovero" d="M510.322 941.446c-137.16 0-260.773-55.88-348.827-145.627-89.747-89.747-143.933-213.36-143.933-350.52 0-274.321 221.827-496.147 494.453-496.147s494.453 221.827 494.453 496.147c-1.696 274.32-223.52 496.147-496.147 496.147zM940.428 487.632c-3.386 1.696-8.467 3.386-13.546 8.467-23.707 15.24-76.2 54.186-138.854 49.107-62.653-3.386-94.827-33.867-125.307-57.574s-79.587-89.747-91.44-106.68c-6.773-10.16-13.547-16.933-18.627-20.32-3.387-3.386-6.773-5.082-10.16-6.773-1.693-1.696-3.387-1.696-5.080-3.386 0 1.696 0 3.386 0 5.082 0 0 6.773 98.214 8.467 104.987 0 8.467 6.773 94.827 8.467 108.373s10.16 101.6 13.547 121.92c5.080 23.707 6.773 42.333 13.547 66.040 8.467 22.013 15.24 45.72 37.253 67.733 18.627 20.32 52.493 23.707 62.653 20.32 140.547-60.96 243.84-196.426 259.080-357.293zM325.748 838.152c1.693 0 25.4 6.773 40.64 0s16.933-6.773 33.867-23.707c0 0 18.627-23.706 27.093-52.493 0 0 6.773-22.013 8.467-32.173 0 0 11.853-60.96 13.547-77.894 0 0 6.773-64.346 6.773-74.506s8.467-89.747 8.467-96.52c0-6.773 6.773-91.44 8.467-99.907 0-6.773 1.693-18.627 1.693-25.4v-1.696c-5.080 3.386-6.773 6.773-6.773 6.773-6.773 5.082-18.627 20.32-42.333 52.493-38.947 54.186-81.28 88.053-81.28 88.053-59.267 45.72-94.827 45.72-133.773 45.72-33.867 0-94.827-30.48-113.453-45.72-6.773-5.082-11.853-8.467-15.24-10.16 13.547 152.4 110.067 282.787 243.84 347.133zM95.455 319.992c0 45.72 18.627 79.587 45.72 106.68 32.173 32.173 66.040 44.027 115.147 33.867 8.467-1.696 16.933-5.082 25.4-10.16 25.4-11.853 50.8-35.56 71.12-55.88 13.547-15.24 27.093-30.48 35.56-40.64s15.24-20.32 22.013-30.48c23.707-32.173 27.093-49.107 37.253-81.281 16.933-47.413 25.4-184.573 27.093-215.053 0-1.696-1.693-10.16-8.467-15.24v0c-174.413 16.933-321.733 142.24-370.84 308.187zM549.268 11.805c-5.080 3.386-6.773 11.853-6.773 16.933-1.693 8.467 6.773 93.133 8.467 120.227s11.853 76.2 22.013 106.68c10.16 30.48 25.4 59.267 38.947 76.2 3.387 6.773 57.573 72.813 79.587 91.44 27.093 23.706 49.107 32.173 67.733 37.253 40.64 10.16 72.813 0 99.907-20.32s40.64-38.947 55.88-76.2c6.773-16.934 8.467-37.254 6.773-52.493-52.493-162.56-196.427-284.48-372.533-299.72z" />
<glyph unicode="&#xe91d;" glyph-name="quote" d="M0 374.857h219.428l-146.287-292.57h219.428l146.287 292.57v438.857h-438.857zM585.143 813.713v-438.857h219.428l-146.287-292.57h219.428l146.287 292.57v438.857z" />
<glyph unicode="&#xe91e;" glyph-name="eye" d="M511.987 100.072c-338.663 0-508.963 337.086-510.643 340.472-0.879 1.783-1.344 3.722-1.344 5.712v3.438c0 1.99 0.465 3.929 1.344 5.712 1.68 3.412 171.981 340.523 510.643 340.523 338.688 0 509.015-337.112 510.695-340.523 0.879-1.783 1.344-3.748 1.344-5.712v-3.438c0-1.99-0.465-3.929-1.344-5.712-1.706-3.412-172.006-340.472-510.695-340.472zM26.596 447.961c20.005-37.374 182.629-322.069 485.366-322.069 303.15 0 465.438 284.696 485.417 322.069-20.005 37.348-182.603 322.121-485.417 322.121-303.098 0-465.386-284.722-485.366-322.121zM511.987 279.935c-91.676 0-166.294 74.618-166.294 166.372 0 91.702 74.592 166.32 166.294 166.32s166.346-74.618 166.346-166.32c-0.026-91.728-74.644-166.372-166.346-166.372zM511.987 586.781c-77.435 0-140.448-63.013-140.448-140.474 0-77.487 63.013-140.526 140.448-140.526 77.461 0 140.5 63.039 140.5 140.526-0.026 77.461-63.039 140.474-140.5 140.474zM567.479 446.307c0-30.633-24.833-55.466-55.466-55.466s-55.466 24.833-55.466 55.466c0 30.633 24.833 55.466 55.466 55.466s55.466-24.833 55.466-55.466z" />
<glyph unicode="&#xe91f;" glyph-name="locked" d="M815.407 578.598v106.439c0 151.609-136.116 274.963-303.407 274.963s-303.407-123.354-303.407-274.963v-106.439c-64.493-11.112-113.778-67.319-113.778-134.959v-370.574c0-75.567 61.497-137.064 137.083-137.064h560.204c75.586 0 137.083 61.497 137.083 137.083v370.574c0 67.622-49.285 123.828-113.778 134.94zM246.519 685.037c0 130.712 119.087 237.037 265.481 237.037s265.481-106.325 265.481-237.037v-104.296h-530.963v104.296zM891.259 73.083c0-54.67-44.487-99.157-99.157-99.157h-560.204c-54.67 0-99.157 44.487-99.157 99.157v370.574c0 54.67 44.487 99.157 99.157 99.157h560.204c54.67 0 99.157-44.487 99.157-99.157v-370.574zM512 429.037c-41.832 0-75.852-34.020-75.852-75.852v-113.778c0-41.832 34.020-75.852 75.852-75.852s75.852 34.020 75.852 75.852v113.778c0 41.832-34.020 75.852-75.852 75.852zM549.926 239.407c0-20.916-17.010-37.926-37.926-37.926s-37.926 17.010-37.926 37.926v113.778c0 20.916 17.010 37.926 37.926 37.926s37.926-17.010 37.926-37.926v-113.778z" />
<glyph unicode="&#xe920;" glyph-name="user" d="M748.9 295.074c-0.814 0.088-118.688-3.39-136.214 122.926 19.474 13.588 37.422 31.228 53.234 52.632 30.76 41.64 50.58 93.876 57.64 150.378 2.426 2.194 4.434 4.924 5.786 8.142 12.774 30.43 19.252 62.922 19.252 96.578 0 129.176-97.442 234.27-217.222 234.27-31.326 0-61.718-7.216-90.422-21.466-10.95-0.836-21.68-2.762-31.97-5.734-49.194-14.214-89.226-50.688-112.724-102.708-22.812-50.508-27.308-109.966-12.656-167.424 3.096-12.138 7.032-24.066 11.7-35.462 1.264-3.082 3.148-5.712 5.41-7.876 11.436-88.19 53.398-161.26 110.614-201.154-17.58-126.53-135.412-123.018-136.224-123.106-84.764-2.876-152.85-72.682-152.85-158.134v-177.882c0-12.734 10.322-23.056 23.056-23.056h733.382c12.732 0 23.058 10.322 23.058 23.056v177.882c-0.002 85.456-68.082 155.264-152.85 158.138zM421.786 888.498c8.414 2.432 17.3 3.874 26.412 4.284 3.382 0.152 6.688 1.046 9.686 2.622 23.342 12.264 48.070 18.482 73.494 18.482 94.348 0 171.108-84.406 171.108-188.156 0-3.114-0.088-6.212-0.224-9.298-18.3 18.584-43.726 30.134-71.804 30.134h-157.142c-9.35 0-18.224 2.936-25.666 8.492-6.354 4.742-11.266 11.116-14.2 18.432-4.544 11.316-15.748 18.394-27.944 17.628-12.24-0.78-22.54-9.28-25.632-21.158-9.106-34.992-27.264-67.224-52.176-93.362-23.18 95.398 18.654 190.106 94.088 211.9zM401.726 489.72c-30.002 36.652-49.65 86.146-55.878 140.332 29.094 25.93 52.094 58.198 67.068 93.99 2.272-2.096 4.658-4.078 7.15-5.94 15.472-11.546 33.884-17.652 53.252-17.652h157.142c22.234 0 41.398-13.336 49.95-32.422-0.002-0.164-0.026-0.32-0.026-0.484 0-130.156-75.52-236.046-168.348-236.046-40.4-0.002-79.578 20.676-110.31 58.222zM454.704 395.534c18.278-6.614 37.504-10.152 57.332-10.152 19.67 0 38.888 3.424 57.286 10.030 8.442-43.982 32.896-82.316 67.054-108.706l-121.070-172.416c-0.79-1.126-1.888-1.696-3.264-1.696-1.374 0-2.472 0.572-3.26 1.694l-121.1 172.456c34.16 26.42 58.606 64.782 67.022 108.79zM855.634-17.886h-687.268v154.826c0 61.844 50.314 112.158 112.158 112.158 0.84 0 37.942 0.902 67.258 14.224l123.258-175.532c9.368-13.344 24.696-21.31 41-21.31 0 0 0 0 0.002 0 16.302 0 31.632 7.966 41 21.31l123.236 175.504c33.434-14.198 66.36-14.198 67.2-14.198 61.844 0 112.156-50.314 112.156-112.158v-154.824z" />
<glyph unicode="&#xe921;" glyph-name="employee" d="M415.798 206.49h-64.128c-8.284 0-15-6.716-15-15 0-8.286 6.716-15 15-15h64.128c8.284 0 15 6.714 15 15 0.002 8.282-6.714 15-15 15zM792.491 390.087l-93.737 36.158-47.898 47.898c-3.18 3.18-7.452 4.64-11.638 4.352v40.858c22.638 23.91 38.716 54.334 45.020 88.661 0.084 0.308 0.586 0.814 0.932 0.954 4.186-0.288 8.422-0.002 12.6 0.852 21.81 4.464 37.642 24.738 37.642 48.206v12.494c0 14.010-5.858 26.834-15.328 35.78 15.42 82.292 3.214 149.265-35.446 193.911-37.156 42.9-97.137 63.396-173.455 59.27-71.64-3.872-117.397-37.238-130.987-48.574-19.092-2.382-75.588-16.084-75.588-94.661 0-44.458 7.352-81.268 12.336-101.123-16.908-7.418-28.368-24.788-28.368-44.792v-12.306c0-23.466 15.832-43.74 37.642-48.206 4.178-0.856 8.418-1.142 12.6-0.852 0.344-0.14 0.848-0.644 0.928-0.938 6.306-34.334 22.386-64.762 45.024-88.673v-40.86c-4.188 0.288-8.46-1.174-11.638-4.352l-47.896-47.896-93.737-36.158c-44.426-17.136-72.996-60.616-71.088-108.193l13.276-331.49c0.324-8.074 6.97-14.4 14.978-14.4 0.204 0 0.408 0.004 0.612 0.012 8.278 0.332 14.718 7.31 14.388 15.588l-13.276 331.49c-0.39 9.722 0.966 19.208 3.828 28.106l54.55-54.55c15.336-15.336 23.782-35.726 23.782-57.414v-248.235c0-8.284 6.716-15 15-15s15 6.716 15 15v248.239c0 29.7-11.566 57.624-32.568 78.626l-60.668 60.666c8.628 10.288 19.858 18.502 32.986 23.566l88.199 34.020 67.164-100.747c7.852-11.78 20.436-19.334 34.524-20.728 1.568-0.156 3.132-0.232 4.688-0.232 9.492 0 18.676 2.864 26.452 8.176l-14.408-330.928c-0.36-8.276 6.056-15.278 14.334-15.638 0.222-0.010 0.444-0.014 0.664-0.014 7.984 0 14.624 6.292 14.974 14.348l13.314 305.794h39.596l13.314-305.794c0.35-8.054 6.99-14.348 14.974-14.348 0.22 0 0.442 0.004 0.664 0.014 8.276 0.362 14.694 7.362 14.334 15.638l-14.408 330.924c7.774-5.314 16.958-8.176 26.452-8.176 1.556 0 3.122 0.078 4.688 0.232 14.086 1.394 26.67 8.95 34.524 20.728l67.164 100.747 88.199-34.020c13.128-5.064 24.358-13.28 32.986-23.566l-60.668-60.666c-21.002-21.002-32.568-48.926-32.568-78.626v-248.235c0-8.284 6.716-15 15-15s15 6.716 15 15v248.235c0 21.688 8.446 42.078 23.782 57.414l54.55 54.55c2.862-8.898 4.218-18.384 3.828-28.106l-13.274-331.49c-0.332-8.278 6.11-15.256 14.388-15.588 0.206-0.008 0.408-0.012 0.612-0.012 8.006 0 14.654 6.326 14.978 14.4l13.276 331.488c1.894 47.578-26.676 91.057-71.102 108.193zM369.242 613.452c-2.822 15.398-17.062 26.572-32.438 25.448-1.496-0.11-3.034-0.004-4.574 0.31-7.788 1.594-13.66 9.682-13.66 18.814v12.306c0 9.104 5.958 17.016 13.86 18.404 6.512 1.142 12.768-1.256 16.726-6.416 2.872-3.746 6.696-6.422 11.060-7.742 6.392-1.93 13.442-0.798 18.858 3.026 13.12 9.26 24.242 21.008 33.054 34.916 4.434 6.998 2.358 16.264-4.64 20.7-6.998 4.434-16.266 2.356-20.7-4.64-5.362-8.46-11.822-15.852-19.258-22.048-5.76 5.324-12.714 9.054-20.204 10.976-4.34 16.172-12.724 53.298-12.724 98.737 0 62.584 46.596 65.084 51.8 65.162 3.876 0 7.6 1.5 10.394 4.186 0.416 0.398 42.374 39.954 115.999 43.934 66.718 3.604 118.297-13.322 149.155-48.956 31.418-36.278 41.664-92.037 29.888-161.743-5.4 0.368-11.568-0.038-17.65-1.188l-16.76 40.246c-2.876 6.906-10.416 10.632-17.646 8.744-1.602-0.418-161.167-40.896-228.403 42.806-5.186 6.458-14.626 7.49-21.088 2.302-6.458-5.188-7.49-14.63-2.3-21.088 67.93-84.574 204.027-64.69 246.597-55.956l13.126-31.516c4.946-11.882 17.598-18.372 30.084-15.432 5.516 1.298 11.19 1.46 13.732 0.956 7.91-1.574 13.874-9.388 13.874-18.178v-12.494c0-9.132-5.872-17.22-13.66-18.814-1.54-0.316-3.076-0.418-4.572-0.31-15.338 1.128-29.616-10.050-32.444-25.452-12.652-68.884-72.684-118.881-142.743-118.881-70.058 0-130.089 49.998-142.743 118.881zM448.881 309.412c-3.628-3.63-8.634-5.424-13.748-4.916-5.108 0.506-9.67 3.246-12.518 7.516l-67.676 101.515 29.478 29.478 105.629-92.425-41.166-41.168zM493.501 286.148l1.158 26.616 17.334 17.334 17.332-17.334 1.158-26.616h-36.982zM511.993 371.239l-97.225 85.072v37.748c27.994-18.698 61.52-29.494 97.225-29.494s69.232 10.796 97.225 29.492v-37.746l-97.225-85.072zM601.368 312.012c-2.848-4.27-7.41-7.010-12.518-7.516-5.114-0.51-10.118 1.288-13.748 4.916l-41.166 41.168 105.629 92.425 29.478-29.478-67.676-101.515z" />
<glyph unicode="&#xe922;" glyph-name="profits" d="M581 503.8c-11 5.4-22.8 9.2-35.4 12-12.6 2.6-24.4 5.4-35.4 8s-20 6.2-27.4 10.4c-7.2 4.2-10.8 11-10.8 20.2s3.6 15.4 10.8 18.6c7.2 3.2 16 4.8 26.2 4.8 35 0 63.8-11 86.6-33v61c-8.4 9.4-29.2 16.2-62.2 20.8v61c0 1-0.8 1.6-2.2 1.6h-46.2c-1.4 0-2.2-0.8-2.2-2.2v-60c-11-4-22-10-33.2-18-11.2-7.8-19.2-16.6-24-25.8-4.8-9.4-7.2-21-7.2-35s3.6-26 10.8-35.8c12.8-17.6 33.8-29.6 63-36.2l35.6-8c11-2.4 20-5.6 27.2-9.2 7.2-3.8 11-9.4 11-16.8 0-13.2-8.4-22.4-25.4-27.6-7-2.2-17.6-3.2-32-3.2-20.2 0-38.4 4.8-54.8 14.4-16.2 9.6-28.6 22.8-37.2 39.8v-71.8c22-13.4 44.6-23.4 68-30.2l0.6-54.2c0-1 0.6-1.6 1.6-1.6h46.2c1.4 0 2.2 0.8 2.2 2.2v50c30 10 52.2 24 66.2 41.6 11.4 14.4 17.2 28.8 17.2 42.8 0.6 27.2-12.2 47-37.6 59.4zM724 305.8v130.4h164.4l-372.8 523.6-393.6-523.6h184.6v-125.6c0-0.6 0.2-1 0.2-1.6 0-4.8-0.6-43.6-0.6-50l0.4-101.8v-23.4c0-2.4-0.2-4.8-0.4-7.2 0-5.6 0-11-0.2-16.6 0.2-6.2 0.6-134.4 0.6-134.4 0-0.6 0.2-1 0.2-1.6 0-4.8-0.6-25.6-0.6-31 0.2-6.2 0.2-0.6 0-7l30 0.2h357.2c0 0 29.6-1 29.6-0.2 0 0 0 55.6 0 58v11.4c0 0.2 0 0.2 0 0.4 0 0.8 0 1.4 0 2.2v266c0 0.4 1 31.8 1 31.8zM694.4 465.8v-148.2c-0.4 0-1-51.6-1-51.6l-0.2-0.2c0 0 0-0.2 0.2-0.2 0 0 0.2-66.8 0.2-67.4 0-4.8-0.2-50.6-0.2-50.6v-27c0-55.4-1.6-154.6-1.6-154.6h-355.8c0 0 0.2 14.8 0 17.2v11.4c0 0.2 0 0.2 0 0.4 0 0.8 0 1.4 0 2.2v53c0 0 0.2 33.8 0 36.2v11.4c0 0.2 0 0.2 0 0.4 0 0.8 0 1.4 0 2.2v118c0 0 0.2 33.8 0 36.2v10c0 0-0.2 0-0.2 0 0 0.6 0.2 1.2 0.2 1.8 0 0.8 0 1.4 0 2.2v198h-154.8l333.8 444 316-444h-136.6z" />
<glyph unicode="&#xe923;" glyph-name="stopwatch" d="M518.2 351.6v125.8h-29.6v-125.8c-22.4-6.4-39-27.2-39-51.6 0-29.6 24.2-53.8 53.8-53.8s53.8 24.2 53.8 53.8c0.2 24.4-16.4 45.2-39 51.6zM503.6 275.6c-13.4 0-24.2 10.8-24.2 24.2 0 7.8 3.8 14.8 9.4 19.2v-19.6h29.6v19.6c5.8-4.4 9.6-11.4 9.6-19.2-0.2-13.4-11-24.2-24.4-24.2zM813.8 577.4l26.8-26.8 56.8 56.8-125.6 125.6-56.8-57 26.8-26.8-44.6-44.6c-37.4 24.2-79.6 41.8-125 51v32c45.2 24.6 76.2 72.4 76.2 127.6 0 80-65 145-145 145s-145-65-145-145c0-54.8 30.6-102.6 75.4-127.2v-31.2c-48.2-9-93-27.4-132.6-53.2l-45.8 45.8 26.8 26.8-56.8 56.8-125.4-125.8 56.8-56.8 26.8 26.8 41.2-41.2c-54.8-63.6-88-146.4-88-236.8 0-200.4 163-363.4 363.4-363.4s363.4 163 363.4 363.4c0 91.2-33.8 174.6-89.4 238.4l39.6 39.8zM771.8 691l83.8-83.8-15-15-83.8 83.8 15 15zM762.8 628.4l30.2-30.2-39.4-39.4-30.2 30.2 39.4 39.4zM572.2 722.6v21.2h21.8c-6.4-8-13.6-15.2-21.8-21.2zM388 815c0 63.6 51.8 115.4 115.4 115.4s115.4-51.8 115.4-115.4c0-25-8-48-21.4-67v76h-188.4v-74.8c-13.2 18.6-21 41.4-21 65.8zM669.6 445l16.2 16.2c34.8-39.8 56.8-90.8 60.4-146.6h-22.6v-29.6h22.6c-3.2-56-25.2-107.2-60-147l-16.6 16.6-20.8-20.8 16.8-16.8c-39.6-35.8-90.8-59-147.2-63.2v26h-29.6v-26.4c-57.4 2.6-109.8 25-150.4 60.6l20 20-20.8 20.8-20-20c-36.4 40.4-59.6 92.8-63 150.4h29v29.6h-29c3.6 57.6 26.8 109.8 63.4 150l19.6-19.6 20.8 20.8-19.4 19.4c40.6 35.2 92.6 57.4 149.8 60.2v-25.6h29.6v25.2c56.2-4 107.4-27.2 146.8-62.8l-16.4-16.4 20.8-21zM481.8 577v0 61h42.6v-61h-42.6zM542.8 667.6h-79.2v76.2h79.2v-76.2zM438.4 773.2v21.2h129.4v-21.2h-129.4zM413 743.6h21v-20.6c-7.8 6-15 13-21 20.6zM156.8 592.2l-15 15 83.8 83.8 15-15-83.8-83.8zM204.6 598.2l30.2 30.2 39.4-39.4-30.2-30.2-39.4 39.4zM834 299.4c0-184-149.8-333.8-333.8-333.8s-333.8 149.6-333.8 333.8c0 167.8 124.4 307 285.8 330.4v-58.6c-129.4-22.8-227.8-136-227.8-271.6 0-152.2 123.8-275.8 275.8-275.8s275.8 123.8 275.8 275.8c0 133.8-95.6 245.6-222.2 270.6v58.8c63.4-10.2 120.8-38.4 166.8-79.2l29.8-29.8c52.2-58.8 83.6-136.2 83.6-220.6z" />
<glyph unicode="&#xe924;" glyph-name="vodafon" d="M512.017 960c0 0 0 0-0.001 0-282.779 0-512.016-229.238-512.016-512.016v-0.001c0 0 0 0 0 0 0-282.779 229.238-512.016 512.016-512.016h0.001c0 0 0 0 0 0 282.779 0 512.016 229.238 512.016 512.016v0c0 0 0 0 0 0.001 0 282.779-229.238 512.016-512.016 512.016v0zM693.365 912.022c13.629 0 27.876-1.085 36.612-4.041-92.61-19.212-166.301-105.383-165.973-203.149 0-0.052 0-0.114 0-0.176 0-2.861 0.226-5.669 0.662-8.407l-0.040 0.302c154.942-37.734 225.287-131.361 225.714-260.588s-101.705-271.132-274.314-271.723c-139.802-0.46-285.287 118.853-285.911 310.478-0.394 126.732 67.943 248.831 155.332 321.080 85.385 70.574 202.008 115.863 307.918 116.225z" />
<glyph unicode="&#xe925;" glyph-name="cursor" d="M1014.498 44.636l-218.144 218.144 160.008 68.574c6.522 2.796 10.71 9.252 10.606 16.346-0.104 7.096-4.482 13.426-11.084 16.026l-577.556 227.52c-6.416 2.528-13.694 1.058-18.626-3.746-4.932-4.802-6.59-12.050-4.238-18.52l210.020-577.556c2.39-6.572 8.462-11.090 15.444-11.492 6.948-0.392 13.53 3.392 16.658 9.646l88.316 176.634 225.086-225.088c3.418-3.416 7.896-5.126 12.376-5.126s8.958 1.708 12.376 5.126l78.758 78.758c6.834 6.838 6.834 17.916 0 24.754zM923.364-21.748l-229.88 229.882c-3.31 3.308-7.772 5.126-12.376 5.126-0.932 0-1.87-0.074-2.802-0.226-5.554-0.902-10.336-4.416-12.85-9.448l-80.98-161.958-182.842 502.816 501.814-197.684-144.64-61.988c-5.338-2.288-9.194-7.076-10.292-12.778s0.702-11.578 4.81-15.686l224.048-224.048-54.010-54.008zM354.41 960c-193.010 0-350.034-157.024-350.034-350.034s157.024-350.034 350.034-350.034c9.666 0 17.502 7.836 17.502 17.502s-7.836 17.502-17.502 17.502c-173.71 0-315.030 141.32-315.030 315.030s141.32 315.030 315.030 315.030 315.030-141.32 315.030-315.030c0-9.666 7.836-17.502 17.502-17.502s17.502 7.836 17.502 17.502c0 193.010-157.024 350.034-350.034 350.034z" />
<glyph unicode="&#xe926;" glyph-name="fullscreen" d="M992.654 960h-752.328c-11.54 0-20.898-9.358-20.898-20.898v-522.448h-188.082c-11.54 0-20.898-9.358-20.898-20.898v-438.858c0-11.54 9.358-20.898 20.898-20.898h438.858c11.54 0 20.898 9.358 20.898 20.898v208.98h501.552c11.54 0 20.898 9.358 20.898 20.898v752.326c0 11.54-9.358 20.898-20.898 20.898zM449.306-22.204h-397.062v397.062h167.184v-188.082c0-11.54 9.358-20.898 20.898-20.898h208.98v-188.082zM449.306 207.674h-188.082v167.184h188.082v-167.184zM971.756 207.674h-480.654v188.082c0 11.54-9.358 20.898-20.898 20.898h-208.98v501.55h710.53v-710.53zM867.266 855.51h-188.082c-11.542 0-20.898-9.358-20.898-20.898s9.358-20.898 20.898-20.898h137.63l-219.678-219.678 29.554-29.554 219.678 219.678v-137.63c0-11.54 9.358-20.898 20.898-20.898s20.898 9.358 20.898 20.898v188.082c0 11.542-9.358 20.898-20.898 20.898z" />
<glyph unicode="&#xe927;" glyph-name="target" d="M1006.933 465.067h-34.56c-8.823 240.521-202.786 434.483-443.307 443.307v34.56c0 9.438-7.629 17.067-17.067 17.067s-17.067-7.629-17.067-17.067v-34.56c-240.521-8.823-434.483-202.786-443.307-443.307h-34.56c-9.438 0-17.067-7.629-17.067-17.067s7.629-17.067 17.067-17.067h34.56c8.823-240.521 202.786-434.483 443.307-443.307v-34.56c0-9.438 7.629-17.067 17.067-17.067s17.067 7.629 17.067 17.067v34.56c240.521 8.823 434.483 202.786 443.307 443.307h34.56c9.438 0 17.067 7.629 17.067 17.067s-7.629 17.067-17.067 17.067zM529.067 21.76v33.707c0 9.438-7.629 17.067-17.067 17.067s-17.067-7.629-17.067-17.067v-33.707c-221.696 8.789-400.384 187.477-409.173 409.173h33.707c9.438 0 17.067 7.629 17.067 17.067s-7.629 17.067-17.067 17.067h-33.707c8.789 221.696 187.477 400.384 409.173 409.173v-33.707c0-9.438 7.629-17.067 17.067-17.067s17.067 7.629 17.067 17.067v33.707c221.696-8.789 400.384-187.477 409.173-409.173h-33.707c-9.438 0-17.067-7.629-17.067-17.067s7.629-17.067 17.067-17.067h33.707c-8.789-221.696-187.477-400.384-409.173-409.173zM716.8 465.067h-86.699c-7.526 52.207-48.828 93.508-101.035 101.035v86.699c0 9.438-7.629 17.067-17.067 17.067s-17.067-7.629-17.067-17.067v-86.699c-52.207-7.526-93.508-48.845-101.035-101.035h-86.699c-9.438 0-17.067-7.629-17.067-17.067s7.629-17.067 17.067-17.067h86.699c7.526-52.207 48.828-93.508 101.035-101.035v-86.699c0-9.438 7.629-17.067 17.067-17.067s17.067 7.629 17.067 17.067v86.699c52.207 7.526 93.508 48.845 101.035 101.035h86.699c9.438 0 17.067 7.629 17.067 17.067s-7.629 17.067-17.067 17.067zM512 362.667c-47.053 0-85.333 38.281-85.333 85.333s38.281 85.333 85.333 85.333 85.333-38.281 85.333-85.333-38.281-85.333-85.333-85.333z" />
<glyph unicode="&#xe928;" glyph-name="light-bulb" d="M419.015 62.967c-8.833 0-16.034 7.167-16.034 16s7.167 16 16.034 16h186.001c8.833 0 16-7.167 16-16s-7.167-16-16-16h-186.001zM439.681-0.533c-8.833 0-16 7.167-16 16s7.2 16 16 16h144.667c8.833 0 16-7.167 16-16s-7.167-16-16-16h-144.667zM496.948 220.667c0-8.801-7.133-15.933-15.933-15.933s-15.933 7.134-15.933 15.933c-0.067 67.367-2 117.699-11.3 164.3-9.199 46.066-25.667 88.766-54.899 141.434-4.267 7.699-1.5 17.4 6.167 21.667 7.701 4.267 17.4 1.5 21.701-6.167 31.033-55.933 48.6-101.468 58.399-150.701 9.698-48.6 11.732-100.799 11.798-170.532zM558.949 220.667c0-8.801-7.134-15.933-15.933-15.933s-15.933 7.134-15.933 15.933c0.069 69.735 2.1 121.9 11.799 170.532 9.8 49.233 27.367 94.765 58.4 150.701 4.268 7.699 14 10.466 21.668 6.167 7.701-4.267 10.431-14 6.167-21.667-29.233-52.666-45.7-95.401-54.9-141.434-9.269-46.601-11.234-96.935-11.269-164.3zM407.949 518.966c-8.4 2.667-13 11.666-10.333 20.068 2.7 8.4 11.666 13 20.068 10.333 11.133-3.601 20.767-8.434 29.666-12.901l0.866-0.467c13.899-7 25.467-12.466 34.066-5.467l19.667 16.034c6.833 5.532 16.902 4.499 22.434-2.334s4.499-16.9-2.334-22.434l-19.667-16.034c-24.5-19.933-44.534-10.234-68.666 1.867l-0.733 0.334c-7.8 3.934-16.268 8.167-25.034 11zM528.017 882c0-8.833-7.167-16-16.001-16s-16 7.167-16 16v62c0 8.833 7.167 16 16 16 8.836 0 16.001-7.167 16.001-16v-62zM606.35 549.367c8.4 2.7 17.4-1.934 20.068-10.333 2.7-8.4-1.933-17.4-10.333-20.068-8.765-2.833-17.232-7.099-25.067-11.034l-0.732-0.334c-24.101-12.099-44.166-21.834-68.666-1.866l-19.667 16.032c-6.833 5.534-7.866 15.6-2.334 22.434s15.6 7.866 22.435 2.334l19.667-16.034c8.601-7 20.133-1.5 34.067 5.467l0.869 0.467c8.926 4.501 18.559 9.334 29.693 12.934zM713.317 711.3c51.5-51.5 83.4-122.7 83.4-201.3 0-30.734-4.933-60.433-14-88.268-9.366-28.766-23.266-55.6-40.766-79.535-29.366-40.166-53.199-66.533-71.699-87.031-33.301-36.833-47.9-52.969-47.9-106.835 0-8.833-7.167-16-16-16h-187.301c-8.833 0-16.034 7.167-16.034 16 0 53.333-14.9 69.633-47.966 105.868l-0.034 0.032-0.034-0.032c-18.7 20.466-42.766 46.834-72.867 87.999-17.5 23.935-31.4 50.8-40.766 79.567-9.067 27.801-14 57.534-14 88.233 0 38.466 7.701 75.267 21.633 108.867l0.3 0.634c14.467 34.667 35.534 65.867 61.499 91.799 26.134 26.133 57.5 47.267 92.434 61.733v0.034c33.599 13.933 70.4 21.633 108.867 21.633 38.403 0 75.167-7.701 108.801-21.633 34.865-14.467 66.298-35.633 92.432-61.766v0zM764.684 510c0 69.766-28.302 132.933-74 178.667-23.365 23.367-51.2 42.166-82 54.9-29.666 12.3-62.333 19.099-96.668 19.099-34.3 0-66.966-6.8-96.6-19.099v0.032l-0.067-0.032c-30.8-12.734-58.599-31.533-81.967-54.9-23.133-23.133-41.833-50.733-54.6-81.2l-0.334-0.866c-12.266-29.633-19.099-62.3-19.099-96.6 0-27.4 4.366-53.8 12.367-78.366 8.367-25.565 20.666-49.368 36.133-70.567 28.901-39.533 52.433-65.301 70.734-85.366l-0.034-0.032c35.6-38.9 53.3-58.367 56.067-111.366h156.067c2.733 53.366 20.1 72.633 55.866 112.167 17.867 19.766 40.833 45.2 69.601 84.533 15.466 21.167 27.767 44.967 36.1 70.533 8.068 24.663 12.434 51.029 12.434 78.463zM460.349-64c-8.833 0-16 7.167-16 16s7.167 16 16 16h103.335c8.833 0 16-7.167 16-16s-7.167-16-16-16h-103.335zM708.317 825.167c-4.369-7.6-14.136-10.234-21.769-5.867-7.6 4.366-10.231 14.133-5.865 21.766l31.001 53.699c4.366 7.6 14.134 10.234 21.766 5.867s10.234-14.133 5.867-21.766l-31.001-53.699zM343.315 841.034c4.366-7.6 1.767-17.367-5.867-21.734-7.6-4.366-17.367-1.733-21.733 5.867l-31.001 53.701c-4.366 7.6-1.734 17.367 5.867 21.733 7.633 4.366 17.4 1.734 21.766-5.866l30.967-53.701zM203.882 713.334c7.6-4.366 10.234-14.133 5.867-21.766-4.366-7.6-14.134-10.234-21.734-5.867l-53.701 31.001c-7.633 4.366-10.266 14.133-5.9 21.733 4.366 7.633 14.133 10.234 21.766 5.867l53.701-30.967zM836.016 685.7c-7.633-4.366-17.4-1.734-21.766 5.867-4.368 7.633-1.734 17.4 5.866 21.766l53.701 31.001c7.631 4.366 17.398 1.734 21.766-5.867 4.366-7.6 1.734-17.4-5.867-21.766l-53.699-31.001zM345.782 446.767c3.4-8.1-0.4-17.466-8.5-20.867s-17.466 0.401-20.867 8.5c-5.434 12.865-9.667 26.431-12.468 40.431-2.767 13.833-4.267 27.966-4.267 42.166 0 8.833 7.2 16 16 16 8.833 0 16-7.2 16-16 0-12.5 1.233-24.533 3.534-35.933 2.367-11.864 5.967-23.397 10.567-34.298v0zM345.782 587.267c-3.399-8.1-12.766-11.9-20.867-8.5s-11.9 12.768-8.5 20.867c5.366 12.7 11.932 24.734 19.433 35.901l0.034 0.034-0.034 0.032c7.701 11.4 16.433 22 26 31.567 9.467 9.467 20.068 18.201 31.599 25.966v0.034c11.067 7.467 23.167 14.033 35.967 19.433 12.834 5.434 26.367 9.667 40.4 12.468 13.833 2.8 28.033 4.267 42.2 4.267 8.836 0 16.001-7.167 16.001-16s-7.167-16-16.001-16c-12.534 0-24.599-1.233-35.967-3.5-11.9-2.367-23.401-6-34.267-10.599-10.566-4.467-20.767-10.033-30.467-16.566v0h-0.034c-9.433-6.333-18.433-13.799-26.766-22.134-8.233-8.233-15.7-17.267-22.134-26.833l-0.034 0.034c-6.498-9.635-12.066-19.835-16.565-30.468z" />
<glyph unicode="&#xe929;" glyph-name="tag" d="M20.6 840.8c9-9 34.8-29.2 69.8-53.4-1.4-6.8-2.2-13.8-2.2-21v-243c0-32.8 12.8-63.6 36-86.8l485.8-485.4c10.2-10.2 23.4-15.2 36.8-15.2s26.6 5 36.8 15.2l325.4 325.4c9.8 9.8 15.2 22.8 15.2 36.8s-5.4 27-15.2 36.8l-485.8 485.4c-23.2 23.2-54 36-86.8 36h-243c-38.6 0-72.4-21-90.8-52.2-30.8 21.6-52.2 38.6-58.6 44.8-7 7-10.8 16.2-11 26 0 9.8 3.8 19 10.6 25.8s16 10.6 25.6 10.6c0 0 0.2 0 0.2 0 9.8 0 19.2-4 26-11 3.4-3.4 10.6-11.6 19.2-22.2 5.8-7 16.4-8 23.4-2.2s8 16.4 2.2 23.4c-5.6 6.8-15.8 18.8-21.4 24.4-12.8 13.6-30.4 21-49 21s-36.2-7.2-49.4-20.4-20.4-30.6-20.4-49.4c0-18.6 7.4-36.2 20.6-49.4zM121.6 523.6v243c0 0 0 0.2 0 0.2 18-11.6 37.4-23.6 57.6-35.4-6-23.2 0-48.8 18-67 13.6-13.6 31.4-20.4 49.2-20.4s35.6 6.8 49.2 20.4c27.2 27.2 27.2 71.4 0 98.6s-71.4 27.2-98.6 0c-0.8-0.8-1.6-1.6-2.2-2.4-23 13.4-45 27.2-64.6 40 12.2 22.4 36 37.8 63.2 37.8h243c24 0 46.4-9.4 63.4-26.2l485.6-485.6c3.6-3.6 5.6-8.2 5.6-13.2s-2-9.8-5.6-13.2l-325.4-325.6c-7.4-7.4-19.2-7.4-26.6 0l-485.6 485.6c-17 17-26.2 39.4-26.2 63.4v0zM254 728.2c-9.6 4.8-19.2 9.8-28.6 15 6.2 4.4 13.6 6.8 21 6.8 9.4 0 18.6-3.6 25.8-10.6 14.2-14.2 14.2-37.4 0-51.6s-37.4-14.2-51.6 0c-7.2 7.2-10.8 16.8-10.6 26.2 9.6-5.2 19.2-10.4 29-15.2 2.4-1.2 5-1.8 7.4-1.8 6 0 12 3.4 14.8 9.2 4.2 8 1 18-7.2 22zM525.6 433.4v92.4c35.4-4.4 60.2-20.8 60.2-35.6 0-10 8-18 18-18s18 8 18 18c0 37-41 66.6-96.4 72v2c0 10-8 18-18 18s-18-8-18-18v-2c-55.4-5.4-96.4-35-96.4-72 0-52.8 52.2-71.8 96.4-84.2v-92.4c-35.4 4.4-60.2 20.8-60.2 35.6 0 10-8 18-18 18s-18-8-18-18c0-37 41-66.6 96.4-72v-2c0-10 8-18 18-18s18 8 18 18v2c55.4 5.4 96.4 35 96.4 72 0 52.8-52.2 71.8-96.4 84.2zM489.4 443.8c-44.6 14-60.2 26.6-60.2 46.4 0 15 24.8 31.4 60.2 35.6v-82zM525.6 313.6v82c44.6-14 60.2-26.6 60.2-46.4 0-15-24.8-31.4-60.2-35.6z" />
<glyph unicode="&#xe92a;" glyph-name="checked" d="M902.508 595.525c-9.598 0-17.356-7.758-17.356-17.356v-555.39h-850.441v850.441h850.441v-17.356c0-9.598 7.758-17.356 17.356-17.356s17.356 7.758 17.356 17.356v52.068h-919.864v-919.864h919.864v590.102c0 9.598-7.758 17.356-17.356 17.356zM1018.915 833.423c-6.786 6.786-17.755 6.786-24.541 0l-525.763-525.763-226.842 226.842c-6.786 6.786-17.755 6.786-24.541 0s-6.786-17.755 0-24.541l239.113-239.113c3.384-3.384 7.828-5.085 12.271-5.085s8.886 1.701 12.271 5.085l538.034 538.034c6.786 6.786 6.786 17.755 0 24.541z" />
<glyph unicode="&#xe92b;" glyph-name="agreement" d="M696 128h-224.002c-4.422 0-8-3.578-8-8s3.578-8 8-8h224c4.42 0 8 3.578 8 8s-3.578 8-7.998 8zM663.998 160h-32c-2.672 0-5.172-1.344-6.656-3.562l-17.343-26.016v21.577c0 3.36-2.142 6.298-5.282 7.454-3.124 1.156-6.75 0.172-8.907-2.39-5.828-6.876-32.486-31.61-47.031-28.876-1.25 0.22-4.656 0.844-7.656 6.532 14.045 19.123 25.406 38.404 23.061 48.295-0.938 3.922-3.5 6.906-7.188 8.391-8.17 3.344-16.905 1.422-23.905-5.266-9.259-8.845-15.955-27.486-10.079-48.625-7.196-9.407-15.195-19.251-23.047-28.268-2.906-3.326-2.554-8.375 0.782-11.281 3.328-2.922 8.393-2.562 11.281 0.782 5.642 6.47 12.259 14.297 18.861 22.609 4.922-5.906 10.719-8.202 15.423-8.985 16.187-2.656 35.076 10.049 47.687 20.861v-29.234c0-3.532 2.312-6.64 5.688-7.656 0.75-0.234 1.53-0.344 2.312-0.344 2.626 0 5.156 1.296 6.656 3.562l29.624 44.439h27.72c4.422 0 8 3.578 8 7.998 0 4.422-3.578 8-8 8zM542.157 174.56c1.53 1.468 2.874 2.11 3.968 2.328-1.314-4.312-5.392-11.437-11.125-19.983 0.656 7.75 3.468 14.157 7.156 17.655zM942.653 44.435l-29.828 44.751 14.767 44.283c0.266 0.814 0.406 1.672 0.406 2.532v15.999c0 4.422-3.578 8-8 8s-8-3.578-8-8v-14.703l-15.595-46.767c-0.78-2.342-0.438-4.922 0.938-6.966l32.002-48.001c1.53-2.312 4.076-3.562 6.654-3.562 1.532 0 3.064 0.436 4.438 1.342 3.686 2.454 4.672 7.422 2.218 11.093zM975.591 90.531l-15.595 46.767v14.703c0 4.422-3.578 8-7.998 8-4.422 0-8-3.578-8-8v-15.999c0-0.86 0.14-1.72 0.406-2.532l14.765-44.283-29.826-44.751c-2.454-3.67-1.47-8.639 2.218-11.093 1.374-0.906 2.904-1.344 4.436-1.344 2.578 0 5.126 1.25 6.656 3.564l32 48.001c1.376 2.044 1.72 4.622 0.938 6.966zM967.997 287.999h-64c-4.422 0-8-3.578-8-8 0-4.42 3.578-7.998 8-7.998h64c4.422 0 8 3.578 8 7.998 0 4.422-3.578 8-8 8zM895.996 680.313c-0.186 4.42-4 7.936-8.311 7.686-4.422-0.188-7.86-3.906-7.688-8.313l15.999-400c0.188-4.31 3.718-7.686 8-7.686 0.094 0 0.22 0 0.312 0.002 4.422 0.186 7.86 3.906 7.688 8.311l-16.001 400zM984.31 687.998c-4.5 0.234-8.124-3.266-8.313-7.686l-16.001-400c-0.172-4.404 3.266-8.122 7.688-8.311 0.094 0 0.218 0 0.312 0 4.282 0 7.814 3.374 8 7.684l16.001 400c0.172 4.406-3.266 8.124-7.688 8.313zM935.997 751.999c-35.594 0-55.999-26.252-55.999-72 0-4.422 3.578-8 8-8 4.42 0 7.998 3.578 7.998 8 0 37.156 13.469 55.999 40 55.999s40-18.843 40-55.999c0-4.422 3.578-8 8-8s8 3.578 8 8c0 45.749-20.407 72-56.001 72zM951.998 751.999h-32c-4.422 0-8-3.58-8-8 0-4.422 3.578-8 8-8h32c4.42 0 7.998 3.578 7.998 8s-3.578 8-7.998 8zM935.997 719.999c-4.42 0-7.998-3.58-7.998-8v-239.999c0-4.422 3.578-8 7.998-8 4.422 0 8 3.578 8 7.998v240.001c0 4.422-3.578 8-8 8zM967.997 255.999h-64c-4.422 0-8-3.578-8-8s3.578-8 8-8h64c4.422 0 8 3.578 8 8s-3.578 8-8 8zM967.997 287.999c-4.422 0-8-3.578-8-8v-32c0-4.422 3.578-8 8-8s8 3.578 8 8v32c0 4.422-3.578 8-8 8zM903.997 287.999c-4.422 0-8-3.578-8-8v-32c0-4.422 3.578-8 8-8s8 3.578 8 8v32c0 4.422-3.578 8-8 8zM967.997 160h-64c-4.422 0-8-3.578-8-8 0-4.42 3.578-7.998 8-7.998h64c4.422 0 8 3.578 8 7.998 0 4.422-3.578 8-8 8zM967.997 255.999c-4.422 0-8-3.578-8-8v-96c0-4.42 3.578-7.998 8-7.998s8 3.578 8 7.998v96c0 4.422-3.578 8-8 8zM903.997 255.999c-4.422 0-8-3.578-8-8v-96c0-4.42 3.578-7.998 8-7.998s8 3.578 8 7.998v96c0 4.422-3.578 8-8 8zM791.998 863.998c-4.422 0-8-3.578-8-8v-847.997c0-4.422 3.578-8 8-8s8 3.578 8 7.998v847.999c0 4.422-3.578 8-8 8zM791.998 16.001h-688.002c-4.422 0-8-3.578-8-8s3.58-8 8-8h688.002c4.422 0 8 3.578 8 8s-3.578 8-8 8zM103.996 959.998c-4.422 0-8-3.578-8-8v-943.997c0-4.422 3.58-8 8-8 4.422 0 8 3.578 8 7.998v943.999c0 4.422-3.578 8-8 8zM695.998 960h-592.002c-4.422 0-8-3.578-8-8s3.58-8 8-8h592.002c4.42 0 7.998 3.578 7.998 8s-3.578 8-7.998 8zM797.654 861.656l-96.002 96c-3.122 3.124-8.186 3.126-11.311 0s-3.124-8.188 0-11.313l96-96c1.562-1.562 3.61-2.344 5.656-2.344 2.048 0 4.094 0.78 5.656 2.344 3.124 3.124 3.124 8.188 0 11.313zM679.997 927.998c-4.42 0-7.998-3.578-7.998-8v-79.999c0-4.422 3.578-8 7.998-8 4.422 0 8 3.578 8 8v79.999c0 4.422-3.578 8-8 8zM759.998 847.999h-80.001c-4.42 0-7.998-3.58-7.998-8 0-4.422 3.578-8 7.998-8h80.001c4.42 0 7.998 3.578 7.998 8s-3.578 8-7.998 8zM695.998 544.001h-496.002c-4.422 0-8-3.578-8-8s3.58-8 8-8h496.002c4.42 0 7.998 3.578 7.998 8s-3.578 8-7.998 8zM695.998 480.001h-496.002c-4.422 0-8-3.578-8-8s3.58-8 8-8h496.002c4.42 0 7.998 3.578 7.998 8s-3.578 8-7.998 8zM695.998 415.999h-496.002c-4.422 0-8-3.578-8-8 0-4.42 3.58-7.998 8-7.998h496.002c4.42 0 7.998 3.578 7.998 7.998 0 4.422-3.578 8-7.998 8zM695.998 351.999h-496.002c-4.422 0-8-3.578-8-8 0-4.42 3.58-7.998 8-7.998h496.002c4.42 0 7.998 3.578 7.998 7.998 0 4.422-3.578 8-7.998 8zM455.998 287.999h-256.002c-4.422 0-8-3.578-8-8 0-4.42 3.58-7.998 8-7.998h256.002c4.42 0 8 3.578 8 7.998 0 4.422-3.578 8-8 8zM287.997 831.998c-52.937 0-96-43.063-96-96s43.063-96 96-96 96 43.063 96 96c0 52.937-43.063 96-96 96zM287.997 655.998c-44.111 0-80.001 35.89-80.001 80.001s35.892 80.001 80.001 80.001 80.001-35.89 80.001-80.001c0-44.111-35.89-80.001-80.001-80.001zM325.652 741.657c-3.124 3.124-8.186 3.124-11.311 0l-56.001-56.001c-3.124-3.124-3.124-8.188 0-11.313 1.564-1.562 3.61-2.344 5.656-2.344 2.048 0 4.094 0.782 5.656 2.346l55.999 55.999c3.124 3.124 3.124 8.188 0 11.313zM349.653 717.653l-24.001 24.001c-3.124 3.124-8.186 3.124-11.311 0s-3.124-8.188 0-11.313l23.999-23.999c1.562-1.562 3.61-2.344 5.656-2.344 2.048 0 4.094 0.782 5.656 2.342 3.124 3.126 3.124 8.188 0 11.313zM253.653 733.656c-3.124 3.124-8.188 3.124-11.313 0l-16.001-16.001c-3.124-3.124-3.124-8.188 0-11.313 1.564-1.562 3.61-2.344 5.656-2.344 2.048 0 4.094 0.782 5.656 2.344l16.001 16.001c3.124 3.124 3.124 8.188 0 11.313zM269.652 717.655l-16.001 16.001c-3.124 3.124-8.188 3.126-11.313 0s-3.124-8.188 0-11.313l16.001-16.001c1.564-1.562 3.61-2.344 5.656-2.344 2.048 0 4.094 0.782 5.656 2.344 3.124 3.126 3.124 8.188 0 11.313zM263.996 800c-13.233 0-23.999-10.767-23.999-23.999 0-13.237 10.767-24.001 23.999-24.001 13.237 0 24.001 10.765 24.001 24.001 0 13.233-10.767 23.999-24.001 23.999zM263.996 767.998c-4.414 0-8 3.594-8 8s3.586 8 8 8c4.414 0 8-3.594 8-8s-3.586-8-8-8zM71.996 927.998c-4.422 0-8-3.578-8-8v-943.997c0-4.422 3.58-8 8-8 4.422 0 8 3.578 8 7.998v943.999c0 4.422-3.578 8-8 8zM759.998-16.001h-688.002c-4.422 0-8-3.578-8-7.998 0-4.422 3.58-8 8-8h688.002c4.42 0 7.998 3.578 7.998 8 0 4.42-3.578 7.998-7.998 7.998zM727.998-47.999h-688.002c-4.422 0-8-3.578-8-8s3.58-8 8-8h688.002c4.422 0 8 3.578 8 8s-3.578 8-8 8zM39.996 895.998c-4.422 0-8-3.578-8-8v-943.997c0-4.422 3.58-8 8-8 4.422 0 8 3.578 8 7.998v943.999c0 4.422-3.578 8-8 8z" />
<glyph unicode="&#xe92c;" glyph-name="key" d="M731.429 960c-161.317 0-292.571-131.255-292.571-292.571 0-60.069 18.249-115.931 49.408-162.45l-482.907-482.907c-7.15-7.15-7.15-18.706 0-25.856 3.566-3.566 8.247-5.358 12.928-5.358s9.362 1.792 12.928 5.358l78.501 78.501 133.358-133.358c3.566-3.566 8.247-5.358 12.928-5.358s9.362 1.792 12.928 5.358c7.15 7.15 7.15 18.706 0 25.856l-133.358 133.358 65.573 65.573 96.786-96.786c3.566-3.566 8.247-5.358 12.928-5.358s9.362 1.792 12.928 5.358c7.15 7.15 7.15 18.706 0 25.856l-96.786 96.786 65.573 65.573 133.358-133.358c3.566-3.566 8.247-5.358 12.928-5.358s9.362 1.792 12.928 5.358c7.15 7.15 7.15 18.706 0 25.856l-133.358 133.358 192.402 192.402c53.687-61.714 132.571-100.974 220.599-100.974 161.317 0 292.571 131.255 292.571 292.571s-131.255 292.571-292.571 292.571zM731.429 411.429c-141.166 0-256 114.834-256 256s114.834 256 256 256 256-114.834 256-256-114.834-256-256-256z" />
<glyph unicode="&#xe92d;" glyph-name="optimization" d="M839.791 384.012c-35.286 0-63.984-28.698-63.984-63.984s28.696-63.984 63.984-63.984 63.984 28.698 63.984 63.984c0 35.286-28.694 63.984-63.984 63.984zM839.791 272.044c-26.462 0-47.987 21.525-47.987 47.987s21.525 47.987 47.987 47.987c26.462 0 47.989-21.525 47.989-47.987s-21.527-47.987-47.989-47.987zM839.791 432.001c-4.42 0-7.998-3.576-7.998-7.996 0-4.422 3.578-7.998 7.998-7.998 52.925 0 95.976-43.053 95.976-95.962 0-4.42 3.578-7.998 7.998-7.998s7.998 3.578 7.998 7.998c0 61.736-50.237 111.957-111.973 111.957zM839.791 224.053c-52.923 0-95.976 43.051-95.976 95.976 0 4.42-3.576 7.998-7.996 7.998-4.422 0-7.998-3.578-7.998-7.998 0-61.734 50.237-111.971 111.971-111.971 4.42 0 7.998 3.576 7.998 7.996 0 4.422-3.578 7.998-7.998 7.998zM840.275 328.029h-0.172c-4.404 0-7.904-3.578-7.904-7.998s3.656-7.998 8.076-7.998c4.404 0 7.998 3.578 7.998 7.998s-3.594 7.998-7.998 7.998zM616.33 519.98h-0.172c-4.404 0-7.902-3.578-7.902-7.998s3.654-7.998 8.074-7.998c4.406 0 7.998 3.578 7.998 7.998s-3.592 7.998-7.998 7.998zM839.791 743.927c-4.42 0-7.998-3.578-7.998-7.998v-175.958c0-4.42 3.578-7.998 7.998-7.998s7.998 3.576 7.998 7.998v175.958c0 4.42-3.578 7.998-7.998 7.998zM40.464 751.924h-0.154c-4.422 0-7.92-3.576-7.92-7.998s3.662-7.998 8.074-7.998c4.422 0 7.998 3.576 7.998 7.998s-3.576 7.998-7.998 7.998zM72.456 751.924h-0.156c-4.42 0-7.918-3.576-7.918-7.998s3.662-7.998 8.074-7.998c4.422 0 7.998 3.576 7.998 7.998s-3.576 7.998-7.998 7.998zM104.448 751.924h-0.156c-4.42 0-7.918-3.576-7.918-7.998s3.662-7.998 8.074-7.998c4.422 0 7.998 3.576 7.998 7.998s-3.576 7.998-7.998 7.998zM823.796 767.921h-799.803c-13.231 0-23.993-10.765-23.993-23.995v-15.997c0-4.42 3.576-7.998 7.998-7.998h831.793c4.42 0 7.998 3.578 7.998 7.998v15.997c0 13.233-10.763 23.995-23.993 23.995zM831.793 735.927h-815.798v7.998c0 4.406 3.586 7.998 7.998 7.998h799.803c4.342 0 7.996-3.656 7.996-7.998v-7.998zM7.998 735.927c-4.422 0-7.998-3.578-7.998-7.998v-591.853c0-4.42 3.576-7.998 7.998-7.998 4.42 0 7.996 3.578 7.996 7.998v591.853c0 4.42-3.576 7.998-7.996 7.998zM759.813 144.074h-751.814c-4.422 0-7.998-3.578-7.998-7.998s3.576-7.998 7.998-7.998h751.812c4.42 0 7.998 3.578 7.998 7.998s-3.576 7.998-7.996 7.998zM39.99 735.927c-4.422 0-7.998-3.578-7.998-7.998v-591.853c0-4.42 3.576-7.998 7.998-7.998 4.42 0 7.996 3.578 7.996 7.998v591.853c0 4.42-3.576 7.998-7.996 7.998zM23.993 671.943h-15.995c-4.422 0-7.998-3.578-7.998-7.998s3.576-7.998 7.998-7.998h15.995c4.42 0 7.998 3.578 7.998 7.998s-3.578 7.998-7.998 7.998zM23.993 623.956h-15.995c-4.422 0-7.998-3.576-7.998-7.998s3.576-7.998 7.998-7.998h15.995c4.42 0 7.998 3.576 7.998 7.998s-3.578 7.998-7.998 7.998zM23.993 575.965h-15.995c-4.422 0-7.998-3.578-7.998-7.998s3.576-7.998 7.998-7.998h15.995c4.42 0 7.998 3.578 7.998 7.998s-3.578 7.998-7.998 7.998zM23.993 527.979h-15.995c-4.422 0-7.998-3.578-7.998-7.998 0-4.422 3.576-7.998 7.998-7.998h15.995c4.42 0 7.998 3.576 7.998 7.998 0 4.42-3.578 7.998-7.998 7.998zM23.993 479.992h-15.995c-4.422 0-7.998-3.578-7.998-7.998s3.576-7.998 7.998-7.998h15.995c4.42 0 7.998 3.576 7.998 7.998 0 4.42-3.578 7.998-7.998 7.998zM23.993 432.001h-15.995c-4.422 0-7.998-3.576-7.998-7.996 0-4.422 3.576-7.998 7.998-7.998h15.995c4.42 0 7.998 3.576 7.998 7.998 0 4.42-3.578 7.996-7.998 7.996zM23.993 384.014h-15.995c-4.422 0-7.998-3.578-7.998-7.998s3.576-7.998 7.998-7.998h15.995c4.42 0 7.998 3.578 7.998 7.998s-3.578 7.998-7.998 7.998zM23.993 336.027h-15.995c-4.422 0-7.998-3.578-7.998-7.998s3.576-7.998 7.998-7.998h15.995c4.42 0 7.998 3.578 7.998 7.998s-3.578 7.998-7.998 7.998zM23.993 288.037h-15.995c-4.422 0-7.998-3.576-7.998-7.998 0-4.42 3.576-7.996 7.998-7.996h15.995c4.42 0 7.998 3.576 7.998 7.996 0 4.422-3.578 7.998-7.998 7.998zM23.993 240.048h-15.995c-4.422 0-7.998-3.576-7.998-7.996 0-4.422 3.576-7.998 7.998-7.998h15.995c4.42 0 7.998 3.576 7.998 7.998 0 4.42-3.578 7.996-7.998 7.996zM23.993 192.061h-15.995c-4.422 0-7.998-3.576-7.998-7.996 0-4.422 3.576-7.998 7.998-7.998h15.995c4.42 0 7.998 3.576 7.998 7.998 0 4.42-3.578 7.996-7.998 7.996zM151.961 671.943h-63.984c-4.42 0-7.998-3.578-7.998-7.998s3.578-7.998 7.998-7.998h63.984c4.42 0 7.998 3.578 7.998 7.998s-3.578 7.998-7.998 7.998zM487.877 623.956h-271.932c-4.42 0-7.998-3.576-7.998-7.998s3.578-7.998 7.998-7.998h271.932c4.422 0 7.998 3.576 7.998 7.998s-3.576 7.998-7.998 7.998zM183.953 623.956h-79.979c-4.422 0-7.998-3.576-7.998-7.998s3.576-7.998 7.998-7.998h79.979c4.42 0 7.998 3.576 7.998 7.998s-3.578 7.998-7.998 7.998zM455.885 575.965h-47.987c-4.422 0-7.998-3.578-7.998-7.998s3.576-7.998 7.998-7.998h47.987c4.422 0 7.998 3.578 7.998 7.998s-3.576 7.998-7.998 7.998zM375.906 575.965h-255.937c-4.42 0-7.998-3.578-7.998-7.998s3.578-7.998 7.998-7.998h255.937c4.42 0 7.998 3.578 7.998 7.998s-3.578 7.998-7.998 7.998zM167.956 479.992h-47.987c-4.42 0-7.998-3.578-7.998-7.998s3.578-7.998 7.998-7.998h47.987c4.422 0 7.998 3.576 7.998 7.998 0 4.42-3.576 7.998-7.998 7.998zM437.39 479.992h-237.442c-4.42 0-7.996-3.578-7.996-7.998s3.576-7.998 7.996-7.998h237.442c4.42 0 7.998 3.576 7.998 7.998 0 4.42-3.578 7.998-7.998 7.998zM167.956 288.037h-47.987c-4.42 0-7.998-3.576-7.998-7.998 0-4.42 3.578-7.996 7.998-7.996h47.987c4.422 0 7.998 3.576 7.998 7.996 0 4.422-3.576 7.998-7.998 7.998zM421.395 288.037h-221.447c-4.42 0-7.996-3.576-7.996-7.998 0-4.42 3.576-7.996 7.996-7.996h221.447c4.42 0 7.996 3.576 7.996 7.996 0 4.422-3.576 7.998-7.996 7.998zM343.914 527.979h-207.95c-4.42 0-7.996-3.578-7.996-7.998 0-4.422 3.576-7.998 7.996-7.998h207.95c4.42 0 7.998 3.576 7.998 7.998 0 4.42-3.578 7.998-7.998 7.998zM487.877 432.001h-159.961c-4.42 0-7.996-3.576-7.996-7.996 0-4.422 3.576-7.998 7.996-7.998h159.961c4.422 0 7.998 3.576 7.998 7.998 0 4.42-3.576 7.996-7.998 7.996zM359.909 384.014h-255.935c-4.422 0-7.998-3.578-7.998-7.998s3.576-7.998 7.998-7.998h255.935c4.422 0 7.998 3.578 7.998 7.998s-3.576 7.998-7.998 7.998zM279.93 240.048h-175.956c-4.422 0-7.998-3.576-7.998-7.996 0-4.422 3.576-7.998 7.998-7.998h175.956c4.42 0 7.998 3.576 7.998 7.998 0 4.42-3.578 7.996-7.998 7.996zM551.862 336.027h-239.94c-4.42 0-7.998-3.578-7.998-7.998s3.578-7.998 7.998-7.998h239.94c4.422 0 7.998 3.578 7.998 7.998s-3.576 7.998-7.998 7.998zM279.93 336.027h-159.961c-4.42 0-7.998-3.578-7.998-7.998s3.578-7.998 7.998-7.998h159.961c4.42 0 7.998 3.578 7.998 7.998s-3.578 7.998-7.998 7.998zM151.961 192.061h-63.984c-4.42 0-7.998-3.576-7.998-7.996 0-4.422 3.578-7.998 7.998-7.998h63.984c4.42 0 7.998 3.576 7.998 7.998 0 4.42-3.578 7.996-7.998 7.996zM519.87 384.014h-127.967c-4.42 0-7.996-3.578-7.996-7.998s3.576-7.998 7.996-7.998h127.967c4.42 0 7.998 3.578 7.998 7.998s-3.576 7.998-7.998 7.998zM295.925 432.001h-175.956c-4.42 0-7.998-3.576-7.998-7.996 0-4.422 3.578-7.998 7.998-7.998h175.956c4.422 0 7.998 3.576 7.998 7.998 0 4.42-3.576 7.996-7.998 7.996zM1023.732 257.313c-0.562 2.064-1.89 3.796-3.732 4.858l-33.226 19.199c3.312 12.591 4.982 25.571 4.982 38.662s-1.67 26.072-4.982 38.678l33.21 19.183c3.826 2.202 5.138 7.092 2.92 10.919l-31.992 55.423c-1.046 1.844-2.796 3.172-4.842 3.734-2.062 0.532-4.248 0.266-6.076-0.812l-33.368-19.261c-18.699 18.541-41.598 31.788-66.842 38.662v37.428c0 4.42-3.578 7.998-7.998 7.998h-63.984c-4.42 0-7.998-3.578-7.998-7.998v-37.428c-25.243-6.872-48.143-20.119-66.842-38.662l-33.368 19.261c-1.842 1.078-3.998 1.344-6.076 0.812-2.048-0.562-3.796-1.89-4.842-3.734l-32.008-55.455c-2.218-3.826-0.906-8.717 2.922-10.919l33.21-19.183c-3.294-12.605-4.966-25.571-4.966-38.646 0-13.091 1.672-26.072 4.982-38.678l-33.21-19.183c-3.828-2.202-5.14-7.092-2.922-10.919l31.992-55.423c2.186-3.828 7.076-5.126 10.919-2.922l33.382 19.261c18.683-18.541 41.582-31.788 66.826-38.662v-37.428c0-4.42 3.578-7.998 7.998-7.998h63.984c4.42 0 7.998 3.578 8.002 7.998v37.428c25.243 6.872 48.143 20.119 66.826 38.662l33.382-19.261c3.842-2.234 8.733-0.906 10.919 2.922l32.008 55.423c1.062 1.842 1.358 4.014 0.812 6.060zM981.069 210.746l-31.868 18.385c-3.234 1.906-7.326 1.266-9.857-1.484-18.731-20.165-42.711-34.038-69.344-40.098-3.638-0.828-6.216-4.060-6.216-7.794v-35.678h-47.985v35.676c0 3.734-2.578 6.966-6.216 7.794-26.634 6.060-50.613 19.933-69.342 40.098-2.532 2.75-6.64 3.39-9.859 1.484l-31.868-18.385-23.993 41.584 31.696 18.293c3.234 1.86 4.748 5.718 3.64 9.279-4 12.997-6.032 26.494-6.032 40.13 0 13.623 2.032 27.104 6.016 40.116 1.108 3.56-0.406 7.402-3.64 9.263l-31.696 18.293 24.009 41.614 31.852-18.385c3.234-1.892 7.326-1.266 9.859 1.484 18.745 20.165 42.725 34.038 69.358 40.098 3.638 0.828 6.216 4.060 6.216 7.794v35.678h47.987v-35.678c0-3.732 2.578-6.966 6.216-7.794 26.636-6.060 50.613-19.933 69.36-40.098 2.514-2.75 6.638-3.374 9.857-1.484l31.852 18.385 23.993-41.582-31.696-18.293c-3.232-1.86-4.748-5.718-3.638-9.279 3.998-12.997 6.030-26.492 6.030-40.13s-2.032-27.136-6.030-40.116c-1.11-3.562 0.406-7.418 3.638-9.279l31.71-18.307-24.009-41.584zM709.104 520.122l-14.497 3.874c-0.892 5.826-2.392 11.511-4.516 16.963l10.593 10.609c1.5 1.498 2.342 3.53 2.342 5.654s-0.842 4.154-2.342 5.654l-33.93 33.928c-2.998 3-8.308 3-11.309 0l-10.591-10.591c-5.452 2.124-11.137 3.624-16.981 4.514l-3.888 14.511c-0.562 2.062-1.89 3.812-3.732 4.858-1.844 1.078-3.984 1.328-6.078 0.812l-46.347-12.435c-2.048-0.562-3.798-1.904-4.844-3.732-1.060-1.844-1.356-4.030-0.794-6.076l3.81-14.247c-2.436-1.904-4.654-3.858-6.716-5.904-1.998-2.016-3.936-4.218-5.858-6.686l-14.279 3.828c-4.294 1.060-8.637-1.422-9.793-5.656l-12.411-46.347c-1.14-4.28 1.39-8.655 5.654-9.811l14.503-3.874c0.892-5.842 2.392-11.529 4.532-16.981l-10.607-10.607c-1.5-1.5-2.344-3.53-2.344-5.654s0.844-4.154 2.344-5.654l33.944-33.93c3.124-3.124 8.184-3.124 11.309 0l10.593 10.593c5.466-2.14 11.137-3.64 16.979-4.516l3.876-14.513c0.562-2.046 1.888-3.796 3.732-4.842 1.234-0.716 2.608-1.076 3.998-1.076 0.686 0 1.39 0.094 2.076 0.27l46.349 12.435c4.264 1.154 6.794 5.526 5.654 9.809l-3.828 14.231c2.5 1.952 4.688 3.872 6.702 5.888 2.030 2.030 3.968 4.232 5.904 6.732l14.215-3.828c2.062-0.53 4.234-0.266 6.076 0.812 1.844 1.046 3.172 2.796 3.734 4.842l12.419 46.333c1.138 4.28-1.39 8.655-5.654 9.811zM688.954 475.85l-11.779 3.17c-3.296 0.828-6.732-0.39-8.655-3.186-2.578-3.718-4.92-6.606-7.42-9.107-2.468-2.468-5.358-4.826-9.093-7.404-2.764-1.922-4.046-5.39-3.17-8.655l3.17-11.795-30.896-8.292-3.218 12.043c-0.892 3.264-3.734 5.638-7.108 5.888-7.81 0.61-15.307 2.608-22.307 5.936-1.108 0.516-2.28 0.766-3.436 0.766-2.078 0-4.124-0.812-5.656-2.344l-8.765-8.765-22.633 22.621 8.781 8.779c2.388 2.388 3.014 6.030 1.576 9.091-3.328 6.982-5.328 14.497-5.952 22.323-0.264 3.372-2.622 6.2-5.888 7.090l-12.043 3.218 8.28 30.898 11.841-3.17c3.278-0.828 6.732 0.422 8.653 3.202 2.516 3.656 4.86 6.528 7.358 9.045 2.562 2.546 5.528 4.968 9.061 7.374 2.812 1.904 4.106 5.39 3.218 8.685l-3.172 11.827 30.898 8.294 3.216-12.043c0.876-3.28 3.718-5.638 7.094-5.904 7.856-0.626 15.369-2.626 22.321-5.936 3.048-1.484 6.702-0.828 9.091 1.562l8.781 8.779 22.621-22.619-8.781-8.781c-2.39-2.388-3.014-6.028-1.578-9.091 3.328-6.982 5.328-14.497 5.952-22.307 0.264-3.374 2.624-6.202 5.888-7.092l12.031-3.216-8.28-30.884zM615.846 551.972c-22.055 0-39.99-17.933-39.99-39.99s17.935-39.99 39.99-39.99c22.057 0 39.99 17.933 39.99 39.99s-17.933 39.99-39.99 39.99zM615.846 487.988c-13.231 0-23.993 10.763-23.993 23.993s10.763 23.993 23.993 23.993 23.993-10.763 23.993-23.993-10.763-23.993-23.993-23.993z" />
<glyph unicode="&#xe92e;" glyph-name="profit" d="M656.486 688h-0.172c-4.406 0-7.906-3.58-7.906-8 0-4.422 3.656-8 8.078-8 4.406 0 8 3.578 8 8s-3.594 8-8 8zM848.483 928h-0.172c-4.406 0-7.906-3.578-7.906-8s3.656-8 8.078-8c4.408 0 8 3.578 8 8s-3.594 8-8 8zM336.484 960h-0.172c-4.406 0-7.906-3.578-7.906-8s3.656-8 8.078-8c4.406 0 8 3.578 8 8s-3.594 8-8 8zM400.486 864.016h-0.172c-4.406 0-7.906-3.578-7.906-8s3.656-8 8.078-8c4.406 0 8 3.578 8 8s-3.594 8-8 8zM544.487 784.015h-0.172c-4.406 0-7.906-3.58-7.906-8 0-4.422 3.656-8 8.078-8 4.404 0 7.998 3.578 7.998 8s-3.594 8-7.998 8zM352.001 800c-30.876 0-56.001-25.124-56.001-55.999s25.126-56.001 56.001-56.001c30.874 0 56.001 25.128 56.001 56.001s-25.126 55.999-56.001 55.999zM352.001 703.998c-22.063 0-40 17.945-40 40s17.937 40 40 40 39.998-17.945 40-40c0-22.055-17.937-40-40-40zM400.002 720.001c-4.422 0-8-3.58-8-8 0-22.055-17.937-40-40-40s-40 17.945-40 40c0 4.422-3.578 8-8 8s-8-3.58-8-8c0-30.876 25.126-56.001 56.001-56.001s55.999 25.126 56.001 56.001c0 4.422-3.578 8-8 8zM352.001 767.998c-4.422 0-8-3.578-8-8v-31.998c0-4.422 3.58-8 8-8s7.998 3.578 8 7.998v32c0 4.422-3.578 8-8 8zM303.998 751.999c-4.422 0-8-3.58-8-8v-32c0-4.422 3.578-8 8-8s8 3.578 8 8v32c0 4.422-3.578 8-8 8zM399.998 751.999c-4.422 0-8-3.58-8-8v-32c0-4.422 3.578-8 8-8s8 3.578 8 8v32c0 4.422-3.578 8-8 8zM808.001 864c-26.468 0-47.999-21.531-47.999-48.001s21.531-48.001 47.999-48.001c26.47 0 48.001 21.531 48.001 48.001s-21.535 48.001-48.001 48.001zM808.001 783.999c-17.639 0-32 14.351-32 32s14.361 32 32 32c17.643 0 32-14.351 32-32-0.002-17.649-14.359-32-32-32zM847.999 792c-4.422 0-8-3.58-8-8 0-17.649-14.359-32-32-32-17.639 0-32 14.351-32 32 0 4.422-3.578 8-8 8-4.42 0-7.998-3.58-7.998-8 0-26.47 21.531-48.001 47.999-48.001 26.47 0 48.001 21.531 48.001 48.001 0 4.422-3.578 8-8 8zM768.001 824c-4.42 0-7.998-3.58-7.998-8v-30c0-4.422 3.578-8 7.998-8 4.422 0 8 3.578 8 8v30c0 4.422-3.578 8-8 8zM847.999 824c-4.422 0-8-3.58-8-8v-31.25c0-4.422 3.578-8 8-8s8 3.578 8 8v31.25c0 4.422-3.578 8-8 8zM808.001 831.998c-4.42 0-7.998-3.578-7.998-8v-15.999c0-4.422 3.578-8 7.998-8 4.422 0 8 3.578 8 8v15.999c0 4.422-3.578 8-8 8zM884.97 678.271c-3.454 2.742-8.501 2.172-11.251-1.312l-303.998-384.335c-1.108-1.422-1.718-3.156-1.718-4.968v-83.687c-5.766-3.718-22.375-11.969-56.001-11.969-33.72 0-50.313 8.299-56.001 11.955v83.703c0 1.812-0.608 3.546-1.718 4.968l-304 384.335c-2.75 3.484-7.798 4.054-11.251 1.312s-4.046-7.774-1.312-11.235l302.28-382.163v-84.875c0-2.124 0.844-4.156 2.344-5.656 1.874-1.876 19.781-18.345 69.656-18.345 49.877 0 67.782 16.469 69.654 18.343 1.5 1.5 2.344 3.532 2.344 5.656v84.875l302.282 382.163c2.736 3.46 2.144 8.493-1.31 11.235zM480.001 319.999c-4.422 0-8-3.578-8-8v-79.999c0-4.422 3.58-8 8-8s7.998 3.578 8 8v79.999c0 4.422-3.578 8-8 8zM485.907 316.731l-230.704 289.454c-2.75 3.462-7.796 4-11.235 1.274-3.454-2.758-4.032-7.788-1.266-11.243l230.702-289.452c1.58-1.984 3.906-3.016 6.25-3.016 1.75 0 3.516 0.562 4.984 1.748 3.456 2.75 4.034 7.78 1.268 11.235zM511.999 640.001c-214.829 0-348.265 19.453-360.078 33.132-0.546 3.884-3.89 6.868-7.922 6.868-4.422 0-8-3.578-8-8 0-46.657 337.516-48.001 376.001-48.001 4.422 0 8 3.578 8 8s-3.578 8-8 8zM880.189 680.751c-4.422 0-7.812-2.828-7.812-7.25-9.703-13.687-143.609-33.5-360.376-33.5-4.422 0-8-3.578-8-8s3.58-8 8-8c38.484 0 376.001 1.344 376.001 48.001 0 4.422-3.39 8.751-7.812 8.751zM511.999 719.999c-27.532 0-54.375-0.33-80.187-0.954-4.422-0.11-7.922-3.772-7.812-8.194 0.11-4.35 3.672-7.804 8-7.804 0.064 0 0.126 0 0.186-0.002 25.688 0.626 52.405 0.954 79.813 0.954 4.422 0 8 3.578 8 8s-3.578 8-8 8zM271.25 710.295c-135.25-12.649-135.25-29.968-135.25-38.296 0-4.422 3.39-8.751 7.812-8.751s7.814 2.828 7.812 7.25c0.392 0.548 10.783 13.547 121.125 23.859 4.39 0.414 7.624 4.312 7.218 8.711-0.406 4.406-4.078 7.578-8.719 7.226zM511.999 719.999c-4.422 0-8-3.58-8-8 0-4.422 3.58-8 8-8 214.829 0 348.267-19.453 360.078-33.132 0.546-3.884 3.89-6.868 7.922-6.868 4.422 0 8 3.578 8 8 0.002 46.657-337.514 48.001-376.001 48.001zM624.002 96c-4.422 0-8-3.578-8-8 0-57.343-46.655-104-104-104s-104 46.657-104 104c0 4.422-3.578 8-8 8s-8-3.578-8-8c0-66.172 53.829-119.999 120.001-119.999s120.001 53.827 120.001 119.999c0 4.422-3.578 8-8 8zM624.002 64c-4.422 0-8-3.578-8-8 0-57.343-46.655-103.998-104-103.998s-104 46.655-104 103.998c0 4.422-3.578 8-8 8s-8-3.578-8-8c0-66.172 53.829-119.999 120.001-119.999s120.001 53.827 120.001 119.999c0 4.422-3.578 8-8 8zM439.313 173.592c-3.062 3.156-8.156 3.202-11.313 0.124-23.217-22.717-36-53.155-36-85.717 0-4.42 3.578-7.998 8-7.998s8 3.578 8 7.998c0 28.22 11.079 54.595 31.188 74.282 3.156 3.094 3.218 8.156 0.124 11.311zM596.002 173.716c-3.124 3.094-8.188 3-11.313-0.124-3.094-3.154-3.032-8.216 0.124-11.311 20.111-19.703 31.188-46.095 31.188-74.282 0-4.42 3.578-7.998 8-7.998s8 3.578 8 7.998c0 32.53-12.783 62.968-36 85.717zM624.002 96c-4.422 0-8-3.578-8-8v-32c0-4.422 3.578-8 8-8s8 3.578 8 8v32c0 4.422-3.578 8-8 8zM399.998 96c-4.422 0-8-3.578-8-8v-32c0-4.422 3.578-8 8-8s8 3.578 8 8v32c0 4.422-3.578 8-8 8zM511.999-16.001c-4.422 0-8-3.578-8-7.998v-32c0-4.422 3.58-8 8-8 4.422 0 8 3.578 8 8v32c0 4.42-3.578 7.998-8 7.998zM575.999 4.078c-4.42 0-7.998-3.578-7.998-8v-31.984c0-4.422 3.578-8 7.998-8 4.422 0 8 3.578 8 8v31.984c0 4.422-3.578 8-8 8zM448.001 4.078c-4.422 0-8-3.578-8-8v-32c0-4.422 3.58-8 8-8s7.998 3.578 8 8v32c0 4.422-3.578 8-8 8zM511.999 144.001c-4.422 0-8-3.578-8-8v-96c0-4.422 3.58-8 8-8 4.422 0 8 3.578 8 8v96c0 4.422-3.578 8-8 8zM519.999 688c-17.641 0-32.002-14.351-32.002-32 0-4.422 3.578-8 8-8s8 3.58 8 8c0 8.821 7.172 16.001 16.001 16.001s16.001-7.18 16.001-16.001c0-4.422 3.578-8 8-8 4.42 0 7.998 3.578 7.998 8 0.002 17.649-14.357 32-32 32zM255.999 896c-13.235 0-24.001-10.767-24.001-23.999 0-13.237 10.767-24.001 24.001-24.001s23.999 10.765 24.001 24.001c0 13.233-10.767 23.999-24.001 23.999zM255.999 863.998c-4.406 0-8 3.586-8 8s3.594 8 8 8c4.404 0 7.998-3.586 8-8 0-4.414-3.594-8-8-8zM688 960c-13.233 0-23.999-10.767-23.999-23.999 0-13.237 10.767-24.001 23.999-24.001s23.999 10.765 23.999 24.001c0.002 13.233-10.765 23.999-23.999 23.999zM688 927.998c-4.406 0-8 3.586-8 8s3.594 8 8 8 8-3.586 8-8c0-4.414-3.594-8-8-8zM632.002 832.014c-17.641 0-32-14.351-32-32s14.359-32 32-32c17.639 0 32 14.351 32 32s-14.361 32-32 32zM632.002 784.013c-8.829 0-16.001 7.178-16.001 16.001s7.172 16.001 16.001 16.001c8.827 0 15.999-7.178 15.999-16.001s-7.172-16.001-15.999-16.001zM184.001 800.014c-17.641 0-32-14.351-32-32s14.359-32 32-32 32 14.351 32 32c0 17.649-14.363 32-32 32zM184.001 752.013c-8.829 0-16.001 7.178-16.001 16.001s7.172 16.001 16.001 16.001 15.999-7.178 15.999-16.001-7.17-16.001-15.999-16.001zM511.999 943.999c-22.063 0-40-17.947-40-40 0-22.055 17.937-40 40-40s40 17.945 40 40c0.002 22.055-17.935 40-40 40zM511.999 879.997c-13.235 0-24.001 10.767-24.001 24.001 0 13.233 10.767 23.999 24.001 23.999s24.001-10.765 24.001-23.999c0-13.237-10.765-24.001-24.001-24.001zM544.005 879.999c-4.422 0-8-3.58-8-8 0-13.237-10.767-24.001-24.001-24.001s-24.001 10.767-24.001 24.001c0 4.422-3.578 8-8 8s-8-3.58-8-8c0-22.055 17.937-40 40-40s40 17.945 40.002 40c-0.002 4.422-3.58 8-7.998 8zM480.001 911.999c-4.422 0-8-3.58-8-8v-32c0-4.422 3.58-8 8-8s7.998 3.578 8 8v32c0 4.422-3.578 8-8 8zM544.001 911.999c-4.422 0-8-3.58-8-8v-32c0-4.422 3.578-8 8-8 4.42 0 7.998 3.578 7.998 8v32c0.002 4.422-3.576 8-7.998 8zM511.999 920c-4.422 0-8-3.58-8-8v-16.001c0-4.422 3.58-8 8-8 4.422 0 8 3.578 8 8v16.001c0 4.422-3.578 8-8 8z" />
</font>
</defs>
</svg>
